<svg width="301" height="321" viewBox="0 0 301 321" fill="none" xmlns="http://www.w3.org/2000/svg">
<path d="M119.85 75.5601H193.13C200.21 75.5601 205.96 81.3101 205.96 88.3901V247.2C205.96 254.28 200.21 260.03 193.13 260.03H119.86C112.78 260.03 107.03 254.28 107.03 247.2V88.4001C107.03 81.3201 112.78 75.5701 119.86 75.5701L119.85 75.5601Z" fill="#C2C2C6"/>
<path d="M193.12 78.9897H119.85C114.653 78.9897 110.44 83.2028 110.44 88.3997V247.21C110.44 252.407 114.653 256.62 119.85 256.62H193.12C198.317 256.62 202.53 252.407 202.53 247.21V88.3997C202.53 83.2028 198.317 78.9897 193.12 78.9897Z" fill="white"/>
<path fill-rule="evenodd" clip-rule="evenodd" d="M106.98 213.37C107.41 213.37 107.55 213.72 107.31 214.14C107.06 214.57 106.52 214.91 106.09 214.91C105.66 214.91 105.52 214.56 105.76 214.14C106.01 213.71 106.55 213.37 106.98 213.37Z" fill="#A7A9AC"/>
<path fill-rule="evenodd" clip-rule="evenodd" d="M154.03 119.18C171.03 119.18 184.82 132.96 184.82 149.97C184.82 166.98 171.03 180.76 154.03 180.76C137.03 180.76 123.24 166.98 123.24 149.97C123.24 132.96 137.02 119.18 154.03 119.18Z" fill="#CED1D9"/>
<path d="M160.04 180.86H150.69C147 171.98 147.53 147.36 148.81 146.94L150.75 146.24L154.06 145.04L157.26 146.32L159.61 147.26C161.18 152.44 162.24 171.89 160.04 180.85V180.86Z" fill="#0F8861"/>
<g style="mix-blend-mode:multiply" opacity="0.5">
<path d="M150.79 180.86H150.69C147 171.98 147.53 147.36 148.81 146.94L150.75 146.24C150.56 149.93 149.68 169.32 150.79 180.87V180.86Z" fill="#EEC799"/>
</g>
<g style="mix-blend-mode:multiply" opacity="0.5">
<path d="M160.62 166.24C160.62 168.99 160.53 171.71 160.41 174.22C156.65 174.08 153.01 174.28 149.8 174.62C149.59 172.4 149.44 170 149.35 167.55L160.62 166.24Z" fill="#EEC799"/>
</g>
<g style="mix-blend-mode:multiply" opacity="0.5">
<path d="M160.04 180.86H159.82C161.5 162.07 158.17 149.37 157.26 146.32L159.61 147.26C161.18 152.44 162.24 171.89 160.04 180.85V180.86Z" fill="#EEC799"/>
</g>
<path d="M149.8 174.62C150.03 176.96 149.8 179.27 150.69 180.86L144.87 179.37L140.93 177.84C144.87 179.37 140.25 178.06 140.36 176.14C140.48 173.97 140.46 171.41 140.36 168.61C140.15 163.06 139.62 156.59 139.2 150.44C139.35 149.47 140.02 148.66 140.95 148.32L150.79 146.13C149.9 148.24 149.4 153.52 149.28 159.57C149.25 161.03 149.25 162.55 149.27 164.07C149.29 165.23 149.31 166.4 149.36 167.56C149.45 170 149.6 172.41 149.81 174.63L149.8 174.62Z" fill="#F3E7D0"/>
<path d="M167.24 174.88C167.34 177.71 167.71 177.55 167.71 177.55L164.53 179.27L160.06 180.33C160.61 178.49 160.28 176.68 160.4 174.22C160.52 171.71 160.61 168.99 160.61 166.24C160.61 164.62 160.58 162.98 160.51 161.37C160.45 159.97 160.35 158.58 160.21 157.24C159.76 152.87 158.87 148.95 157.24 146.32L167.28 148.32C168.17 148.68 168.8 149.48 168.94 150.43C168.51 155.35 167.94 160.64 167.57 165.43C167.29 168.96 167.13 172.23 167.23 174.88H167.24Z" fill="#F3E7D0"/>
<path d="M149.35 167.55C149.44 169.99 149.59 172.4 149.8 174.62C145.74 175.05 142.38 175.69 140.35 176.13C140.47 173.96 140.45 171.4 140.35 168.6L149.35 167.55Z" fill="#F8F2EB"/>
<path d="M167.58 175.26C165.45 174.91 163.3 174.72 161.19 174.64C161.3 172.29 161.39 169.75 161.39 167.18L167.9 166.42C167.64 169.72 167.49 172.78 167.58 175.26Z" fill="#F8F2EB"/>
<path d="M149.26 164.06L145.19 165.24L142.78 164.19L144.11 158.1C144.11 158.1 146.4 160.19 149.28 159.56C149.25 161.02 149.25 162.54 149.27 164.06H149.26Z" fill="#F8F2EB"/>
<path d="M161.88 169.38L150.94 172.05L150.67 172.12L145.93 173.28C143.54 174.29 140.83 174.24 138.48 173.14L137.96 172.9C136.11 172.04 135.24 169.89 135.97 167.99L139.22 150.31L145.49 153.43V162.65H159.07L161.88 169.38Z" fill="#F3E7D0"/>
<path d="M165.91 159.29L164.36 162.42L161.28 162.63C161.22 161.32 161.13 160.02 161 158.77C161 158.77 162.46 157.88 164.13 157.57C165.8 157.26 165.9 159.29 165.9 159.29H165.91Z" fill="#F8F2EB"/>
<path d="M152.28 162.64L150.94 172.05L150.67 172.11L149.66 162.64H152.28Z" fill="#F8F2EB"/>
<path d="M152.07 161.98V165.73C149.77 166.68 147.51 162.67 145.48 162.64V161.66C145.48 161.66 146.64 160.87 148.8 161.24C150.96 161.61 152.06 161.98 152.06 161.98H152.07Z" fill="#FBBF9D"/>
<path d="M170.34 172.07L170.32 172.09C169.1 172.89 167.66 173.27 166.23 173.17C165.85 173.14 165.46 173.08 165.08 172.99L162.86 172.9L150.86 172.43L151.34 161.03L162.66 162.67L160.73 152.82L168.95 150.31L172.11 166.6C172.88 168.61 172.15 170.89 170.35 172.07H170.34Z" fill="#F3E7D0"/>
<path d="M163.46 163.85L168.52 164.66L163.2 162.63L163.46 163.85Z" fill="#F8F2EB"/>
<path d="M162.65 162.67L160.11 162.3L156.87 161.83C156.98 161.61 157.34 161.23 157.82 160.78C159.11 159.56 161.28 157.88 161.81 157.87C162.33 157.51 162.18 158.7 162.01 158.8C162.85 158.42 163.13 159.26 162.5 159.88C163.38 159.63 163.54 160.85 162.94 161.32C163.79 161.63 163.3 162.79 162.66 162.67H162.65Z" fill="#FBBF9D"/>
<path d="M163.46 155.94C163.97 151.91 167.6 150.64 167.6 150.64C166.89 151.19 164.79 153.58 163.46 155.94Z" fill="#F8F2EB"/>
<path d="M140.26 149.21C140.96 149.14 144.08 150.3 145.49 154.47C143.01 151.1 141.24 149.55 140.26 149.21Z" fill="#F8F2EB"/>
<path d="M167.72 162.79C167.72 162.79 165.84 162.17 163.66 162.64C163.29 162.24 165.66 161.43 167.72 162.79Z" fill="#F8F2EB"/>
<path d="M145.48 162.18V162.64H140.93L145.48 162.18Z" fill="#F8F2EB"/>
<path d="M162.68 160.22C162.68 160.22 161.32 160.66 160.41 161.84C161.18 161.2 161.94 160.64 162.68 160.22Z" fill="#D68465"/>
<path d="M163.14 161.23L160.89 162.46C160.89 162.46 161.96 161.71 162.19 161.59C162.41 161.47 163.14 161.23 163.14 161.23Z" fill="#D68465"/>
<path d="M163.55 162.58C163.55 162.58 162.9 162.74 162.61 162.81C162.32 162.88 161.13 163.45 161.13 163.45C161.13 163.45 161.93 162.89 162.54 162.68C163.14 162.47 163.55 162.58 163.55 162.58Z" fill="#D68465"/>
<path d="M151.3 161.76L150.24 165.6C150.52 165.73 150.81 165.83 151.13 165.88L151.3 161.77V161.76Z" fill="#D68465"/>
<path d="M160.11 162.3L156.87 161.83C156.98 161.61 157.34 161.23 157.82 160.78C157.82 160.78 157.68 161.92 160.11 162.3Z" fill="#D68465"/>
<path d="M157.33 147.59C156.17 150.14 152.24 149.65 150.97 147.95C150.65 147.53 150.56 147.02 150.68 146.54C150.79 146.07 150.92 145.55 151.02 145C151.12 144.38 151.19 143.73 151.14 143.1H156.86C156.86 143.8 156.88 144.3 156.91 144.71C156.97 145.44 157.08 145.86 157.34 146.51C157.48 146.86 157.5 147.24 157.34 147.59H157.33Z" fill="#FBBF9D"/>
<path d="M156.9 144.71C154.29 146.26 151.91 145.43 151.01 145C151.11 144.38 151.18 143.73 151.13 143.1H156.85C156.85 143.8 156.87 144.3 156.9 144.71Z" fill="#D68465"/>
<path d="M164.74 136.66C165.01 138.39 163.76 140.14 162.77 140.14C161.78 140.14 161.94 139.03 161.94 137.66C161.94 136.29 161.78 135.18 162.77 135.18C163.76 135.18 164.57 135.59 164.74 136.67V136.66Z" fill="#FBBF9D"/>
<path d="M143.46 133.61C143.17 135.46 144.51 137.33 145.56 137.33C146.61 137.33 146.45 136.14 146.45 134.67C146.45 133.2 146.62 132.01 145.56 132.01C144.5 132.01 143.64 132.44 143.46 133.6V133.61Z" fill="#FBBF9D"/>
<path d="M153.84 143.77C149.07 143.77 146.11 140.51 146.11 136.48V128.98C146.11 124.95 149.57 121.69 153.84 121.69C158.11 121.69 161.57 124.95 161.57 128.98V136.48C161.58 140.13 158.61 143.77 153.84 143.77Z" fill="#FBBF9D"/>
<path d="M157.99 123.74C158.17 123.31 158.77 122.35 158.27 122.33C157.21 122.29 157.64 121.68 155.6 121.68C154.58 121.68 155.7 126.2 153.57 122.95C153.57 122.95 152.58 122.41 152.58 122.42C151.82 123.33 150.96 124.78 147.58 122.68C147.58 122.68 147.81 126.03 150.42 126.79C153.95 127.82 155.9 126.08 156.9 125.2C156.97 125.14 157.03 125.08 157.1 125.02C156.72 126.16 156.51 127.09 155.18 127.22C157.95 127.18 158.92 123.78 158.92 123.78L157.99 123.75V123.74Z" fill="#D68465"/>
<path d="M157.66 124.33L157.7 124.27C158.02 123.78 158.2 123.19 158.2 122.57C158.2 120.83 156.79 119.41 155.04 119.41C154.17 119.41 153.38 119.76 152.81 120.33C152.16 121.1 149.01 122.31 146.12 120.51C146.12 120.51 146.46 125.9 151.3 126.41C154.42 126.74 156.18 125.75 157.03 125.01C157.22 124.86 157.39 124.68 157.54 124.48C157.59 124.41 157.63 124.36 157.66 124.32V124.33Z" fill="#303840"/>
<path d="M157.72 121.86C157.72 121.86 161.75 120.58 162.39 124.69C163.03 128.8 162.72 132.07 162.72 132.07C161.88 132.07 161.75 133.44 161.55 134.67C161.55 134.67 161.24 124.54 157.25 123.8C153.27 123.06 157.71 121.86 157.71 121.86H157.72Z" fill="#303840"/>
<path d="M149.95 121.86C149.95 121.86 145.92 120.58 145.28 124.69C144.64 128.8 144.95 132.07 144.95 132.07C145.67 132.28 146 133.27 146.12 134.67C146.12 134.67 146.43 124.54 150.42 123.8C154.4 123.06 149.96 121.86 149.96 121.86H149.95Z" fill="#303840"/>
<path d="M157.48 123.77C157.48 123.77 156.94 127.06 155.1 127.23C157.47 127.2 158.42 123.77 158.42 123.77H157.48Z" fill="#303840"/>
<path d="M149.19 120.23C149.19 120.23 150.77 121.57 153.92 120.71C157.07 119.85 154.1 120.36 154.1 120.36C154.1 120.36 150.98 121.29 149.19 120.22V120.23Z" fill="#303840"/>
<path d="M157.63 121.89C157.63 121.89 158.52 120.58 160.37 121.21C158.68 121.04 158.07 122.11 158.07 122.11L157.63 121.89Z" fill="#303840"/>
<path d="M162.62 139.28C162.62 139.28 162.62 135.39 164.13 136.45C163.11 136.56 162.62 139.28 162.62 139.28Z" fill="#D68465"/>
<path d="M162.97 137.44C162.97 137.44 163.46 137.2 163.98 137.77C163.18 137.52 162.84 137.91 162.84 137.91L162.97 137.45V137.44Z" fill="#D68465"/>
<path d="M145.72 136.41C145.72 136.41 145.72 132.25 144.1 133.39C145.19 133.51 145.72 136.41 145.72 136.41Z" fill="#D68465"/>
<path d="M145.35 134.44C145.35 134.44 144.83 134.18 144.27 134.79C145.13 134.53 145.49 134.93 145.49 134.93L145.35 134.43V134.44Z" fill="#D68465"/>
<path d="M166.24 173.16H166.23C165.85 173.14 165.46 173.08 165.08 172.98L162.86 172.89L153.21 166.6L166.24 173.15V173.16Z" fill="#F8F2EB"/>
<path d="M182.26 216.7H133C130.06 216.7 127.68 219.08 127.68 222.02V233.14C127.68 236.08 130.06 238.46 133 238.46H182.26C185.2 238.46 187.58 236.08 187.58 233.14V222.02C187.58 219.08 185.2 216.7 182.26 216.7ZM143.7 233.69V231.27C143.7 229.4 142.31 227.85 140.5 227.62C141.27 227.1 141.77 226.22 141.77 225.22C141.77 223.62 140.48 222.33 138.88 222.33C137.28 222.33 135.99 223.62 135.99 225.22C135.99 226.22 136.49 227.1 137.26 227.62C135.45 227.86 134.06 229.4 134.06 231.27V233.69C132.16 232.24 130.94 229.95 130.94 227.38C130.94 223 134.49 219.44 138.88 219.44C143.27 219.44 146.82 222.99 146.82 227.38C146.82 229.95 145.6 232.24 143.7 233.69ZM166.29 233.4H149.4V231.71H166.29V233.4ZM183.18 229.85H149.41V228.16H183.18V229.85ZM183.18 226.31H149.41V224.62H183.18V226.31ZM183.18 222.76H149.41V221.07H183.18V222.76Z" stroke="#0F8861" stroke-width="0.5" stroke-miterlimit="10"/>
<path d="M234.18 203.72C234.18 206.9 232.77 209.75 230.54 211.67C228.7 213.26 226.3 214.22 223.68 214.22C221.06 214.22 218.66 213.26 216.82 211.67C214.59 209.75 213.18 206.9 213.18 203.72C213.18 197.92 217.88 193.22 223.68 193.22C229.48 193.22 234.18 197.92 234.18 203.72Z" fill="white"/>
<path d="M223.68 214.41C221.12 214.41 218.64 213.49 216.7 211.82C214.34 209.79 212.99 206.83 212.99 203.72C212.99 197.83 217.79 193.03 223.68 193.03C229.57 193.03 234.37 197.83 234.37 203.72C234.37 206.83 233.02 209.78 230.66 211.82C228.72 213.49 226.24 214.41 223.68 214.41ZM223.68 193.41C218 193.41 213.37 198.03 213.37 203.71C213.37 206.71 214.67 209.55 216.95 211.51C218.82 213.12 221.21 214.01 223.68 214.01C226.15 214.01 228.54 213.12 230.41 211.51C232.68 209.55 233.98 206.7 233.98 203.7C233.98 198.02 229.36 193.4 223.68 193.4V193.41Z" fill="#0F8861"/>
<path d="M223.68 207.4C225.712 207.4 227.36 205.752 227.36 203.72C227.36 201.688 225.712 200.04 223.68 200.04C221.648 200.04 220 201.688 220 203.72C220 205.752 221.648 207.4 223.68 207.4Z" fill="#0F8861"/>
<path d="M230.53 211.67C228.69 213.26 226.29 214.22 223.67 214.22C221.05 214.22 218.65 213.26 216.81 211.67C217.94 209.78 220.59 208.46 223.67 208.46C226.75 208.46 229.39 209.78 230.53 211.68V211.67Z" fill="#0F8861"/>
<path d="M227 156.87C227 158.78 226.15 160.49 224.81 161.65C223.71 162.6 222.27 163.18 220.69 163.18C219.11 163.18 217.68 162.6 216.57 161.65C215.23 160.49 214.38 158.78 214.38 156.87C214.38 153.39 217.2 150.56 220.69 150.56C224.18 150.56 227 153.38 227 156.87Z" fill="white"/>
<path d="M220.7 163.29C219.16 163.29 217.67 162.74 216.51 161.73C215.09 160.51 214.28 158.74 214.28 156.87C214.28 153.33 217.16 150.45 220.7 150.45C224.24 150.45 227.12 153.33 227.12 156.87C227.12 158.74 226.31 160.51 224.89 161.73C223.73 162.73 222.24 163.29 220.7 163.29ZM220.7 150.68C217.29 150.68 214.51 153.46 214.51 156.87C214.51 158.67 215.29 160.38 216.66 161.56C217.78 162.53 219.22 163.06 220.7 163.06C222.18 163.06 223.62 162.53 224.74 161.56C226.1 160.38 226.89 158.67 226.89 156.87C226.89 153.46 224.11 150.68 220.7 150.68Z" fill="#0F8861"/>
<path d="M220.7 159.08C221.921 159.08 222.91 158.09 222.91 156.87C222.91 155.649 221.921 154.66 220.7 154.66C219.479 154.66 218.49 155.649 218.49 156.87C218.49 158.09 219.479 159.08 220.7 159.08Z" fill="#0F8861"/>
<path d="M224.81 161.65C223.71 162.6 222.27 163.18 220.69 163.18C219.11 163.18 217.68 162.6 216.57 161.65C217.25 160.52 218.84 159.72 220.69 159.72C222.54 159.72 224.13 160.52 224.81 161.65Z" fill="#0F8861"/>
<path d="M218.69 68.27C218.69 70.18 217.84 71.89 216.5 73.05C215.4 74 213.96 74.58 212.38 74.58C210.8 74.58 209.37 74 208.26 73.05C206.92 71.89 206.07 70.18 206.07 68.27C206.07 64.79 208.89 61.96 212.38 61.96C215.87 61.96 218.69 64.78 218.69 68.27Z" fill="white"/>
<path d="M212.38 74.6896C210.84 74.6896 209.35 74.1396 208.19 73.1296C206.77 71.9096 205.96 70.1396 205.96 68.2696C205.96 64.7296 208.84 61.8496 212.38 61.8496C215.92 61.8496 218.8 64.7296 218.8 68.2696C218.8 70.1396 217.99 71.9096 216.57 73.1296C215.41 74.1296 213.92 74.6896 212.38 74.6896ZM212.38 62.0796C208.97 62.0796 206.19 64.8596 206.19 68.2696C206.19 70.0696 206.97 71.7796 208.34 72.9596C209.46 73.9296 210.9 74.4596 212.38 74.4596C213.86 74.4596 215.3 73.9296 216.42 72.9596C217.78 71.7796 218.57 70.0696 218.57 68.2696C218.57 64.8596 215.79 62.0796 212.38 62.0796Z" fill="#0F8861"/>
<path d="M212.38 70.4801C213.601 70.4801 214.59 69.4906 214.59 68.2701C214.59 67.0495 213.601 66.0601 212.38 66.0601C211.159 66.0601 210.17 67.0495 210.17 68.2701C210.17 69.4906 211.159 70.4801 212.38 70.4801Z" fill="#0F8861"/>
<path d="M216.5 73.0399C215.4 73.9899 213.96 74.5699 212.38 74.5699C210.8 74.5699 209.37 73.9899 208.26 73.0399C208.94 71.9099 210.53 71.1099 212.38 71.1099C214.23 71.1099 215.82 71.9099 216.5 73.0399Z" fill="#0F8861"/>
<path d="M138.89 106.78C137.63 106.78 136.4 106.33 135.45 105.5C134.29 104.5 133.62 103.04 133.62 101.51C133.62 98.5998 135.98 96.2397 138.89 96.2397C141.8 96.2397 144.16 98.5998 144.16 101.51C144.16 103.04 143.49 104.5 142.33 105.5C141.37 106.32 140.15 106.78 138.89 106.78ZM138.89 96.4297C136.09 96.4297 133.81 98.7098 133.81 101.51C133.81 102.99 134.45 104.39 135.57 105.36C136.49 106.15 137.67 106.59 138.89 106.59C140.11 106.59 141.29 106.15 142.21 105.36C143.33 104.39 143.97 102.99 143.97 101.51C143.97 98.7098 141.69 96.4297 138.89 96.4297Z" fill="#0F8861"/>
<path d="M138.89 103.33C139.895 103.33 140.71 102.515 140.71 101.51C140.71 100.505 139.895 99.6899 138.89 99.6899C137.885 99.6899 137.07 100.505 137.07 101.51C137.07 102.515 137.885 103.33 138.89 103.33Z" fill="#0F8861"/>
<path d="M142.26 105.43C141.35 106.21 140.17 106.68 138.88 106.68C137.59 106.68 136.41 106.21 135.5 105.42C136.06 104.49 137.36 103.84 138.88 103.84C140.4 103.84 141.7 104.49 142.26 105.42V105.43Z" fill="#0F8861"/>
<path d="M62.43 81.8197C61.46 81.8197 60.52 81.4697 59.78 80.8397C58.89 80.0697 58.37 78.9497 58.37 77.7697C58.37 75.5297 60.19 73.7197 62.42 73.7197C64.65 73.7197 66.47 75.5397 66.47 77.7697C66.47 78.9497 65.96 80.0697 65.06 80.8397C64.32 81.4697 63.38 81.8197 62.41 81.8197H62.43ZM62.43 73.8597C60.28 73.8597 58.52 75.6097 58.52 77.7697C58.52 78.9097 59.01 79.9897 59.88 80.7297C60.59 81.3397 61.5 81.6797 62.43 81.6797C63.36 81.6797 64.27 81.3397 64.98 80.7297C65.84 79.9897 66.34 78.9097 66.34 77.7697C66.34 75.6197 64.59 73.8597 62.43 73.8597Z" fill="#0F8861"/>
<path d="M62.43 79.1696C63.2032 79.1696 63.83 78.5428 63.83 77.7696C63.83 76.9964 63.2032 76.3696 62.43 76.3696C61.6568 76.3696 61.03 76.9964 61.03 77.7696C61.03 78.5428 61.6568 79.1696 62.43 79.1696Z" fill="#0F8861"/>
<path d="M65.03 80.7898C64.33 81.3898 63.42 81.7598 62.43 81.7598C61.44 81.7598 60.53 81.3998 59.83 80.7898C60.26 80.0698 61.26 79.5698 62.43 79.5698C63.6 79.5698 64.6 80.0698 65.03 80.7898Z" fill="#0F8861"/>
<path d="M125.19 204.81C125.19 206.72 124.34 208.43 123 209.59C121.9 210.54 120.46 211.12 118.88 211.12C117.3 211.12 115.87 210.54 114.76 209.59C113.42 208.43 112.57 206.72 112.57 204.81C112.57 201.33 115.39 198.5 118.88 198.5C122.37 198.5 125.19 201.32 125.19 204.81Z" fill="white"/>
<path d="M118.89 211.23C117.35 211.23 115.86 210.68 114.7 209.67C113.28 208.45 112.47 206.68 112.47 204.81C112.47 201.27 115.35 198.39 118.89 198.39C122.43 198.39 125.31 201.27 125.31 204.81C125.31 206.68 124.5 208.45 123.08 209.67C121.92 210.67 120.43 211.23 118.89 211.23ZM118.89 198.62C115.48 198.62 112.7 201.4 112.7 204.81C112.7 206.61 113.48 208.32 114.85 209.5C115.97 210.47 117.41 211 118.89 211C120.37 211 121.81 210.47 122.93 209.5C124.29 208.32 125.08 206.61 125.08 204.81C125.08 201.4 122.3 198.62 118.89 198.62Z" fill="#0F8861"/>
<path d="M118.89 207.02C120.111 207.02 121.1 206.03 121.1 204.81C121.1 203.589 120.111 202.6 118.89 202.6C117.669 202.6 116.68 203.589 116.68 204.81C116.68 206.03 117.669 207.02 118.89 207.02Z" fill="#0F8861"/>
<path d="M123 209.59C121.9 210.54 120.46 211.12 118.88 211.12C117.3 211.12 115.87 210.54 114.76 209.59C115.44 208.46 117.03 207.66 118.88 207.66C120.73 207.66 122.32 208.46 123 209.59Z" fill="#0F8861"/>
<path d="M103.97 80.4599C103.97 82.3699 103.12 84.0799 101.78 85.2399C100.68 86.1899 99.24 86.7699 97.66 86.7699C96.08 86.7699 94.65 86.1899 93.54 85.2399C92.2 84.0799 91.35 82.3699 91.35 80.4599C91.35 76.9799 94.17 74.1499 97.66 74.1499C101.15 74.1499 103.97 76.9699 103.97 80.4599Z" fill="white"/>
<path d="M97.67 86.88C96.13 86.88 94.64 86.33 93.48 85.32C92.06 84.1 91.25 82.33 91.25 80.46C91.25 76.92 94.13 74.04 97.67 74.04C101.21 74.04 104.09 76.92 104.09 80.46C104.09 82.33 103.28 84.1 101.86 85.32C100.7 86.32 99.21 86.88 97.67 86.88ZM97.67 74.27C94.26 74.27 91.48 77.05 91.48 80.46C91.48 82.26 92.26 83.97 93.63 85.15C94.75 86.12 96.19 86.65 97.67 86.65C99.15 86.65 100.59 86.12 101.71 85.15C103.07 83.97 103.86 82.26 103.86 80.46C103.86 77.05 101.08 74.27 97.67 74.27Z" fill="#0F8861"/>
<path d="M97.67 82.67C98.8906 82.67 99.88 81.6805 99.88 80.46C99.88 79.2394 98.8906 78.25 97.67 78.25C96.4495 78.25 95.46 79.2394 95.46 80.46C95.46 81.6805 96.4495 82.67 97.67 82.67Z" fill="#0F8861"/>
<path d="M101.79 85.2298C100.69 86.1798 99.25 86.7598 97.67 86.7598C96.09 86.7598 94.66 86.1798 93.55 85.2298C94.23 84.0998 95.82 83.2998 97.67 83.2998C99.52 83.2998 101.11 84.0998 101.79 85.2298Z" fill="#0F8861"/>
<path d="M113.43 53.4698C112.39 53.4698 111.39 53.0998 110.61 52.4198C109.66 51.5998 109.11 50.3998 109.11 49.1398C109.11 46.7598 111.05 44.8198 113.43 44.8198C115.81 44.8198 117.75 46.7598 117.75 49.1398C117.75 50.3998 117.2 51.5898 116.25 52.4198C115.47 53.0998 114.46 53.4698 113.43 53.4698ZM113.43 44.9798C111.13 44.9798 109.26 46.8498 109.26 49.1498C109.26 50.3598 109.79 51.5098 110.71 52.3098C111.47 52.9598 112.43 53.3198 113.43 53.3198C114.43 53.3198 115.4 52.9598 116.15 52.3098C117.07 51.5198 117.6 50.3698 117.6 49.1498C117.6 46.8498 115.73 44.9798 113.43 44.9798Z" fill="#0F8861"/>
<path d="M113.43 50.6397C114.253 50.6397 114.92 49.9726 114.92 49.1497C114.92 48.3268 114.253 47.6597 113.43 47.6597C112.607 47.6597 111.94 48.3268 111.94 49.1497C111.94 49.9726 112.607 50.6397 113.43 50.6397Z" fill="#0F8861"/>
<path d="M116.2 52.3698C115.46 53.0098 114.49 53.3998 113.43 53.3998C112.37 53.3998 111.4 53.0098 110.66 52.3698C111.12 51.6098 112.19 51.0698 113.43 51.0698C114.67 51.0698 115.74 51.6098 116.2 52.3698Z" fill="#0F8861"/>
<path d="M75.24 221.07C75.24 222.35 74.67 223.49 73.78 224.27C73.04 224.91 72.08 225.29 71.03 225.29C69.98 225.29 69.01 224.9 68.28 224.27C67.38 223.5 66.82 222.35 66.82 221.08C66.82 218.75 68.71 216.86 71.04 216.86C73.37 216.86 75.26 218.75 75.26 221.08L75.24 221.07Z" fill="white"/>
<path d="M71.02 225.36C69.99 225.36 68.99 224.99 68.21 224.32C67.26 223.5 66.72 222.32 66.72 221.07C66.72 218.7 68.65 216.77 71.02 216.77C73.39 216.77 75.32 218.7 75.32 221.07C75.32 222.32 74.78 223.51 73.83 224.32C73.05 224.99 72.05 225.36 71.02 225.36ZM71.02 216.93C68.74 216.93 66.88 218.79 66.88 221.07C66.88 222.28 67.4 223.42 68.32 224.21C69.07 224.86 70.03 225.21 71.02 225.21C72.01 225.21 72.97 224.85 73.72 224.21C74.63 223.42 75.16 222.28 75.16 221.07C75.16 218.79 73.3 216.93 71.02 216.93Z" fill="#0F8861"/>
<path d="M71.02 222.55C71.8374 222.55 72.5 221.887 72.5 221.07C72.5 220.252 71.8374 219.59 71.02 219.59C70.2026 219.59 69.54 220.252 69.54 221.07C69.54 221.887 70.2026 222.55 71.02 222.55Z" fill="#0F8861"/>
<path d="M73.78 224.26C73.04 224.9 72.08 225.28 71.03 225.28C69.98 225.28 69.01 224.89 68.28 224.26C68.74 223.5 69.8 222.97 71.03 222.97C72.26 222.97 73.33 223.5 73.78 224.26Z" fill="#0F8861"/>
<path d="M99.64 175.24C99.64 177.95 98.44 180.37 96.54 182.01C94.97 183.36 92.93 184.18 90.7 184.18C88.47 184.18 86.43 183.36 84.86 182.01C82.96 180.37 81.76 177.95 81.76 175.24C81.76 170.3 85.76 166.3 90.7 166.3C95.64 166.3 99.64 170.3 99.64 175.24Z" fill="white"/>
<path d="M90.7 184.34C88.52 184.34 86.41 183.56 84.76 182.13C82.75 180.4 81.6 177.88 81.6 175.24C81.6 170.22 85.68 166.14 90.7 166.14C95.72 166.14 99.8 170.22 99.8 175.24C99.8 177.89 98.65 180.4 96.64 182.13C94.99 183.55 92.88 184.34 90.7 184.34ZM90.7 166.46C85.86 166.46 81.92 170.4 81.92 175.23C81.92 177.78 83.03 180.21 84.96 181.88C86.55 183.25 88.59 184.01 90.69 184.01C92.79 184.01 94.83 183.25 96.42 181.88C98.35 180.21 99.46 177.79 99.46 175.23C99.46 170.39 95.52 166.46 90.69 166.46H90.7Z" fill="#0F8861"/>
<path d="M90.7 178.38C92.4342 178.38 93.84 176.974 93.84 175.24C93.84 173.505 92.4342 172.1 90.7 172.1C88.9658 172.1 87.56 173.505 87.56 175.24C87.56 176.974 88.9658 178.38 90.7 178.38Z" fill="#0F8861"/>
<path d="M96.53 182.01C94.96 183.36 92.92 184.18 90.69 184.18C88.46 184.18 86.42 183.36 84.85 182.01C85.82 180.4 88.07 179.27 90.69 179.27C93.31 179.27 95.56 180.4 96.53 182.01Z" fill="#0F8861"/>
<path d="M245.96 113.61C245.96 115.52 245.11 117.24 243.77 118.4C242.66 119.36 241.22 119.93 239.64 119.93C238.06 119.93 236.62 119.35 235.51 118.4C234.17 117.24 233.32 115.52 233.32 113.61C233.32 110.12 236.15 107.29 239.65 107.29C243.15 107.29 245.97 110.12 245.97 113.61H245.96Z" fill="white"/>
<path d="M239.63 120.05C238.09 120.05 236.59 119.49 235.42 118.49C234 117.26 233.18 115.49 233.18 113.61C233.18 110.06 236.07 107.17 239.62 107.17C243.17 107.17 246.06 110.06 246.06 113.61C246.06 115.48 245.25 117.26 243.83 118.49C242.66 119.5 241.17 120.05 239.62 120.05H239.63ZM239.63 107.4C236.21 107.4 233.42 110.19 233.42 113.61C233.42 115.42 234.21 117.13 235.57 118.31C236.7 119.28 238.14 119.82 239.62 119.82C241.1 119.82 242.55 119.29 243.67 118.31C245.04 117.13 245.82 115.41 245.82 113.61C245.82 110.19 243.03 107.4 239.61 107.4H239.63Z" fill="#0F8861"/>
<path d="M239.63 115.83C240.856 115.83 241.85 114.836 241.85 113.61C241.85 112.384 240.856 111.39 239.63 111.39C238.404 111.39 237.41 112.384 237.41 113.61C237.41 114.836 238.404 115.83 239.63 115.83Z" fill="#0F8861"/>
<path d="M243.76 118.4C242.65 119.36 241.21 119.93 239.63 119.93C238.05 119.93 236.61 119.35 235.5 118.4C236.18 117.26 237.78 116.46 239.63 116.46C241.48 116.46 243.08 117.26 243.76 118.4Z" fill="#0F8861"/>
<path d="M77.61 127.3C77.52 129.29 76.55 131.04 75.09 132.18C73.89 133.12 72.36 133.65 70.71 133.58C69.06 133.51 67.59 132.83 66.48 131.78C65.14 130.51 64.33 128.68 64.43 126.68C64.6 123.04 67.69 120.23 71.33 120.4C74.97 120.57 77.78 123.66 77.61 127.3Z" fill="white"/>
<path d="M70.71 133.7C69.1 133.62 67.57 132.97 66.4 131.87C64.98 130.52 64.22 128.63 64.31 126.68C64.48 122.98 67.64 120.11 71.34 120.28C75.04 120.45 77.91 123.61 77.74 127.31C77.65 129.26 76.71 131.08 75.17 132.28C73.9 133.27 72.32 133.78 70.71 133.7ZM71.33 120.52C67.76 120.35 64.72 123.12 64.56 126.68C64.47 128.56 65.21 130.39 66.57 131.68C67.7 132.75 69.17 133.37 70.72 133.45C72.27 133.53 73.8 133.04 75.02 132.08C76.5 130.91 77.41 129.17 77.49 127.29C77.66 123.72 74.89 120.69 71.33 120.52Z" fill="#0F8861"/>
<path d="M71.02 129.3C72.2958 129.3 73.33 128.265 73.33 126.99C73.33 125.714 72.2958 124.68 71.02 124.68C69.7442 124.68 68.71 125.714 68.71 126.99C68.71 128.265 69.7442 129.3 71.02 129.3Z" fill="#0F8861"/>
<path d="M75.09 132.18C73.89 133.12 72.36 133.65 70.71 133.58C69.06 133.51 67.59 132.83 66.48 131.78C67.25 130.63 68.95 129.87 70.88 129.96C72.81 130.05 74.43 130.96 75.09 132.18Z" fill="#0F8861"/>
<path d="M216.5 73.04L239.63 107.29" stroke="#009444" stroke-width="0.25" stroke-miterlimit="10"/>
<path d="M95.62 85.6899L70.89 216.62" stroke="#009444" stroke-width="0.25" stroke-miterlimit="10"/>
<path d="M70.84 130.7L84.92 168.41" stroke="#009444" stroke-width="0.25" stroke-miterlimit="10"/>
<path d="M238.86 120L222.49 150.83" stroke="#009444" stroke-width="0.25" stroke-miterlimit="10"/>
<path d="M213.99 199.22L174.93 173.94" stroke="#009444" stroke-width="0.25" stroke-miterlimit="10"/>
<path d="M133.59 99.8799L103.02 84.1099" stroke="#009444" stroke-width="0.25" stroke-miterlimit="10"/>
<path d="M251 72.8398L218.57 68.0298" stroke="#009444" stroke-width="0.25" stroke-miterlimit="10"/>
<path d="M112.02 53.3696L100.02 74.1496" stroke="#009444" stroke-width="0.25" stroke-miterlimit="10"/>
<path d="M253.79 166.81C252.76 166.73 251.79 166.28 251.06 165.54C250.17 164.64 249.72 163.41 249.82 162.16C250.01 159.78 252.09 158 254.47 158.19C256.85 158.38 258.63 160.46 258.44 162.84C258.34 164.09 257.7 165.24 256.69 165.99C255.86 166.6 254.83 166.9 253.79 166.81ZM254.45 158.34C252.16 158.16 250.15 159.88 249.97 162.17C249.87 163.38 250.31 164.57 251.16 165.43C251.86 166.14 252.8 166.57 253.79 166.65C254.78 166.73 255.78 166.45 256.58 165.86C257.56 165.14 258.17 164.03 258.27 162.83C258.45 160.54 256.73 158.53 254.44 158.35L254.45 158.34Z" fill="#0F8861"/>
<path d="M254.13 163.98C254.953 163.98 255.62 163.312 255.62 162.49C255.62 161.667 254.953 161 254.13 161C253.307 161 252.64 161.667 252.64 162.49C252.64 163.312 253.307 163.98 254.13 163.98Z" fill="#0F8861"/>
<path d="M256.64 165.92C255.85 166.5 254.85 166.81 253.79 166.73C252.73 166.65 251.8 166.18 251.11 165.49C251.63 164.76 252.73 164.31 253.98 164.41C255.23 164.51 256.25 165.13 256.64 165.92Z" fill="#0F8861"/>
<path d="M40.67 115.73C39.64 115.65 38.67 115.2 37.94 114.46C37.05 113.56 36.6 112.33 36.7 111.08C36.89 108.7 38.97 106.92 41.35 107.11C43.73 107.3 45.51 109.38 45.32 111.76C45.22 113.01 44.58 114.16 43.57 114.91C42.74 115.52 41.71 115.82 40.67 115.73ZM41.34 107.26C39.05 107.08 37.04 108.8 36.86 111.09C36.76 112.3 37.2 113.49 38.05 114.35C38.75 115.06 39.69 115.49 40.68 115.57C41.67 115.65 42.67 115.37 43.47 114.78C44.45 114.06 45.06 112.95 45.16 111.75C45.34 109.46 43.62 107.45 41.33 107.27L41.34 107.26Z" fill="#0F8861"/>
<path d="M41.01 112.91C41.8329 112.91 42.5 112.243 42.5 111.42C42.5 110.597 41.8329 109.93 41.01 109.93C40.1871 109.93 39.52 110.597 39.52 111.42C39.52 112.243 40.1871 112.91 41.01 112.91Z" fill="#0F8861"/>
<path d="M43.53 114.84C42.74 115.42 41.74 115.73 40.68 115.65C39.62 115.57 38.69 115.1 38 114.41C38.52 113.68 39.62 113.23 40.87 113.33C42.12 113.43 43.14 114.05 43.53 114.84Z" fill="#0F8861"/>
<path d="M193.09 101.58C192.05 101.58 191.05 101.21 190.27 100.53C189.32 99.7097 188.77 98.5097 188.77 97.2497C188.77 94.8697 190.71 92.9297 193.09 92.9297C195.47 92.9297 197.41 94.8697 197.41 97.2497C197.41 98.5097 196.86 99.6997 195.91 100.53C195.13 101.21 194.12 101.58 193.09 101.58ZM193.09 93.0897C190.79 93.0897 188.92 94.9597 188.92 97.2597C188.92 98.4697 189.45 99.6197 190.37 100.42C191.13 101.07 192.09 101.43 193.09 101.43C194.09 101.43 195.06 101.07 195.81 100.42C196.73 99.6297 197.26 98.4797 197.26 97.2597C197.26 94.9597 195.39 93.0897 193.09 93.0897Z" fill="#0F8861"/>
<path d="M193.09 98.7495C193.913 98.7495 194.58 98.0824 194.58 97.2595C194.58 96.4366 193.913 95.7695 193.09 95.7695C192.267 95.7695 191.6 96.4366 191.6 97.2595C191.6 98.0824 192.267 98.7495 193.09 98.7495Z" fill="#0F8861"/>
<path d="M195.87 100.48C195.13 101.12 194.16 101.51 193.1 101.51C192.04 101.51 191.07 101.12 190.33 100.48C190.79 99.7197 191.86 99.1797 193.1 99.1797C194.34 99.1797 195.41 99.7197 195.87 100.48Z" fill="#0F8861"/>
<path d="M254.47 79.4596C253.44 79.3796 252.47 78.9296 251.74 78.1896C250.85 77.2896 250.4 76.0596 250.5 74.8096C250.69 72.4296 252.77 70.6496 255.15 70.8396C257.53 71.0296 259.31 73.1096 259.12 75.4896C259.02 76.7396 258.38 77.8896 257.37 78.6396C256.54 79.2496 255.51 79.5496 254.47 79.4596ZM255.14 70.9996C252.85 70.8196 250.84 72.5396 250.66 74.8296C250.56 76.0396 251 77.2296 251.85 78.0896C252.55 78.7996 253.49 79.2296 254.48 79.3096C255.47 79.3896 256.47 79.1096 257.27 78.5196C258.25 77.7996 258.86 76.6896 258.96 75.4896C259.14 73.1996 257.42 71.1896 255.13 71.0096L255.14 70.9996Z" fill="#0F8861"/>
<path d="M254.81 76.6397C255.633 76.6397 256.3 75.9726 256.3 75.1497C256.3 74.3268 255.633 73.6597 254.81 73.6597C253.987 73.6597 253.32 74.3268 253.32 75.1497C253.32 75.9726 253.987 76.6397 254.81 76.6397Z" fill="#0F8861"/>
<path d="M257.32 78.5697C256.53 79.1497 255.53 79.4597 254.47 79.3797C253.41 79.2997 252.48 78.8297 251.79 78.1397C252.31 77.4097 253.41 76.9597 254.66 77.0597C255.91 77.1597 256.93 77.7797 257.32 78.5697Z" fill="#0F8861"/>
<path d="M250.19 162.19L226.52 158.21" stroke="#009444" stroke-width="0.25" stroke-miterlimit="10"/>
<path d="M64.42 126.79L43.63 114.79" stroke="#009444" stroke-width="0.25" stroke-miterlimit="10"/>
<path d="M123 152.24L98.52 171.02" stroke="#009444" stroke-width="0.25" stroke-miterlimit="10"/>
<path d="M91.69 78.5297L66.61 77.4297" stroke="#009444" stroke-width="0.25" stroke-miterlimit="10"/>
<path d="M221.6 163.81L222.91 193.18" stroke="#009444" stroke-width="0.25" stroke-miterlimit="10"/>
<path d="M94.17 181.53L112.77 204.3" stroke="#009444" stroke-width="0.25" stroke-miterlimit="10"/>
<path d="M90.75 182.04L73.03 216.7" stroke="#009444" stroke-width="0.25" stroke-miterlimit="10"/>
<path d="M209.15 74.1099L196.21 93.9599" stroke="#009444" stroke-width="0.25" stroke-miterlimit="10"/>
</svg>
