<svg width="301" height="321" viewBox="0 0 301 321" fill="none" xmlns="http://www.w3.org/2000/svg">
<path d="M187.733 263.643C196.936 263.643 204.396 256.183 204.396 246.98C204.396 237.777 196.936 230.316 187.733 230.316C178.53 230.316 171.069 237.777 171.069 246.98C171.069 256.183 178.53 263.643 187.733 263.643Z" stroke="#0F8861" stroke-width="1.12287" stroke-miterlimit="10"/>
<path d="M190.417 237.526H185.049V256.424H190.417V237.526Z" fill="#0F8861"/>
<path d="M197.184 249.665V244.297H178.286V249.665H197.184Z" fill="#0F8861"/>
<path d="M55.391 62.5932L55.1103 62.3012C57.0192 60.5046 59.3772 59.3705 61.9486 59L62.0047 59.4042C59.5232 59.7635 57.2325 60.864 55.391 62.5932Z" fill="#0F8861"/>
<path d="M52.3818 67.0508L52 66.9048C52.4042 65.8718 52.9432 64.8949 53.6057 63.9966L53.9313 64.2436C53.2913 65.097 52.7636 66.0514 52.3818 67.0508Z" fill="#0F8861"/>
<path d="M63.7341 82.6479C69.9045 82.6479 74.9066 77.6458 74.9066 71.4753C74.9066 65.3049 69.9045 60.3027 63.7341 60.3027C57.5636 60.3027 52.5615 65.3049 52.5615 71.4753C52.5615 77.6458 57.5636 82.6479 63.7341 82.6479Z" stroke="#0B8961" stroke-width="1.12287" stroke-miterlimit="10"/>
<path d="M70.3927 66.4446C68.5736 64.5581 65.5755 64.5357 63.734 66.3772C61.8925 64.5357 58.8944 64.5581 57.0754 66.4446C55.29 68.2973 55.4247 71.2729 57.2438 73.092L62.5213 78.3695C63.1838 79.032 64.273 79.032 64.9355 78.3695L70.213 73.092C72.0321 71.2617 72.1668 68.2861 70.3927 66.4446Z" fill="white" stroke="#0B8961" stroke-width="1.12287" stroke-miterlimit="10"/>
<path d="M63.734 76.3482H63.7228C63.5543 76.337 63.4084 76.236 63.3522 76.0788L60.9942 69.1843L60.0061 72.0701C59.9499 72.2385 59.7927 72.3508 59.6243 72.3508H55.683C55.4584 72.3508 55.2787 72.1712 55.2787 71.9466C55.2787 71.722 55.4584 71.5423 55.683 71.5423H59.3323L60.6124 67.8144C60.6685 67.646 60.8257 67.5337 60.9942 67.5337C61.1738 67.5337 61.3198 67.646 61.376 67.8144L63.7789 74.8211L66.1032 69.3415C66.1594 69.1955 66.3054 69.1057 66.4513 69.0945C66.6085 69.0833 66.7545 69.1619 66.8331 69.2966L68.0907 71.5423H71.7962C72.0208 71.5423 72.2005 71.722 72.2005 71.9466C72.2005 72.1712 72.0208 72.3508 71.7962 72.3508H67.8549C67.709 72.3508 67.5742 72.2722 67.4956 72.1375L66.5299 70.4082L64.1158 76.1012C64.0372 76.2584 63.8912 76.3482 63.734 76.3482Z" fill="#0F8861"/>
<path d="M163.12 283.485H81.5989C75.906 283.485 71.5605 278.825 71.9422 273.132L85.1248 77.9203C85.5065 72.2273 90.4809 67.5674 96.1739 67.5674H177.706C183.399 67.5674 187.744 72.2273 187.362 77.9203L174.18 273.132C173.787 278.836 168.824 283.485 163.12 283.485Z" fill="#AFAEAF"/>
<path d="M181.164 147.067H179.109C177.515 147.067 176.302 145.764 176.414 144.181L178.941 106.856C179.053 105.262 180.434 103.971 182.029 103.971H184.084C185.678 103.971 186.891 105.273 186.778 106.856L184.252 144.181C184.14 145.775 182.747 147.067 181.164 147.067Z" fill="#AFAEAF"/>
<path d="M83.9345 122.172H81.8796C80.5771 122.172 79.5889 121.106 79.6788 119.803L80.5883 106.329C80.6781 105.026 81.8122 103.959 83.1148 103.959H85.1696C86.4722 103.959 87.4603 105.026 87.3704 106.329L86.4609 119.803C86.3711 121.106 85.2258 122.172 83.9345 122.172Z" fill="#CED1D9"/>
<path d="M82.3063 146.247H80.2515C78.949 146.247 77.9608 145.18 78.0507 143.878L78.9602 130.403C79.05 129.101 80.1841 128.034 81.4866 128.034H83.5415C84.844 128.034 85.8322 129.101 85.7423 130.403L84.8328 143.878C84.743 145.18 83.6089 146.247 82.3063 146.247Z" fill="#CED1D9"/>
<path d="M163.322 283.485H81.7898C76.0968 283.485 71.7513 278.825 72.1331 273.132L85.3156 77.9203C85.6974 72.2273 90.6717 67.5674 96.3647 67.5674H177.897C183.59 67.5674 187.935 72.2273 187.553 77.9203L174.371 273.132C173.989 278.836 169.015 283.485 163.322 283.485Z" fill="#CED1D9"/>
<path opacity="0.71" d="M71.0664 270.987L83.9458 80.4243H184.757L171.889 270.987H71.0664Z" fill="white"/>
<path opacity="0.7" d="M110.872 270.987L146.849 80.4243H169.43L133.453 270.987H110.872Z" fill="white"/>
<path opacity="0.1" d="M93.8158 270.987L129.793 80.4243H141.235L105.258 270.987H93.8158Z" fill="white"/>
<path d="M125.065 72.3618H144.727C145.434 72.3618 145.962 72.9345 145.917 73.6419C145.872 74.3493 145.255 74.922 144.558 74.922H124.897C124.19 74.922 123.662 74.3493 123.707 73.6419C123.752 72.9345 124.358 72.3618 125.065 72.3618Z" fill="white"/>
<path d="M248.188 103.555L247.414 103.499C247.649 100.052 246.504 96.7958 244.202 94.3367C241.912 91.8776 238.745 90.5301 235.309 90.5301V89.7441C238.97 89.7441 242.327 91.1814 244.775 93.7977C247.223 96.4252 248.435 99.8949 248.188 103.555Z" fill="#0F8861"/>
<path d="M247.168 107.082L246.738 113.535L247.523 113.587L247.952 107.134L247.168 107.082Z" fill="#0F8861"/>
<path d="M235.309 92.4839H181.445C175.46 92.4839 170.227 97.3796 169.823 103.376L169.329 110.63C168.925 116.614 173.495 121.521 179.48 121.521H233.344L243.798 127.978L245.46 103.387C245.864 97.3796 241.305 92.4839 235.309 92.4839Z" stroke="#0B8961" stroke-width="1.12287" stroke-miterlimit="10"/>
<path d="M232.581 102.882H182.658V104.701H232.581V102.882Z" fill="#0F8861"/>
<path d="M232.143 109.304H195.077V111.123H232.143V109.304Z" fill="#0F8861"/>
<path d="M154.226 131.302H209.315C215.434 131.302 220.105 136.31 219.701 142.429L219.196 149.852C218.78 155.971 213.435 160.979 207.316 160.979H152.228L140.651 167.582L142.346 142.429C142.762 136.321 148.107 131.302 154.226 131.302Z" stroke="#0B8961" stroke-width="1.12287" stroke-miterlimit="10"/>
<path opacity="0.15" d="M154.226 131.302H209.315C215.434 131.302 220.105 136.31 219.701 142.429L219.196 149.852C218.78 155.971 213.435 160.979 207.316 160.979H152.228L140.651 167.582L142.346 142.429C142.762 136.321 148.107 131.302 154.226 131.302Z" stroke="#0B8961" stroke-width="1.12287" stroke-miterlimit="10"/>
<path d="M206.519 141.935H155.462V143.788H206.519V141.935Z" fill="#0F8861"/>
<path d="M175.202 148.516H155.024V150.368H175.202V148.516Z" fill="#0F8861"/>
<path d="M193.033 148.516H180.142V150.368H193.033V148.516Z" fill="#0F8861"/>
<path d="M136.945 270.942H107.751C96.2299 243.218 97.8805 166.347 101.867 165.033L107.93 162.832L118.261 159.093L128.254 163.101L135.598 166.055C140.516 182.224 143.806 242.96 136.945 270.942Z" fill="#0F8861"/>
<path opacity="0.5" d="M108.054 270.942H107.751C96.2299 243.219 97.8805 166.347 101.867 165.033L107.93 162.832C107.358 174.353 104.607 234.898 108.054 270.942Z" fill="#EEC799"/>
<path opacity="0.5" d="M138.764 225.309C138.753 233.899 138.472 242.388 138.102 250.225C126.357 249.787 114.993 250.427 104.977 251.483C104.303 244.555 103.843 237.043 103.562 229.418L138.764 225.309Z" fill="#EEC799"/>
<path opacity="0.5" d="M136.945 270.942H136.249C141.482 212.283 131.106 172.612 128.254 163.113L135.598 166.066C140.516 182.224 143.806 242.96 136.945 270.942Z" fill="#EEC799"/>
<path d="M104.977 251.472C105.685 258.782 106.605 265.451 107.751 270.942H73.3458C74.4799 267.226 75.1537 262.184 75.4905 256.188C75.8611 249.417 75.7937 241.411 75.4793 232.686C74.828 215.36 73.155 195.148 71.8524 175.947C72.3353 172.915 74.4238 170.389 77.3096 169.345L108.043 162.495C105.28 169.075 103.697 185.57 103.338 204.457C103.248 209.027 103.237 213.754 103.304 218.504C103.349 222.142 103.439 225.792 103.574 229.418C103.843 237.031 104.315 244.543 104.977 251.472Z" fill="#F3E7D0"/>
<path d="M159.448 252.269C159.762 261.095 160.975 267.742 163.647 270.942H136.945C137.293 265.002 137.743 257.917 138.102 250.214C138.472 242.376 138.753 233.888 138.764 225.298C138.776 220.233 138.675 215.124 138.45 210.105C138.248 205.726 137.945 201.403 137.518 197.214V197.203C136.114 183.56 133.33 171.332 128.266 163.102L159.605 169.345C162.378 170.456 164.366 172.96 164.804 175.925C163.479 191.297 161.671 207.803 160.514 222.76C159.65 233.798 159.145 243.993 159.448 252.269Z" fill="#F3E7D0"/>
<path d="M103.562 229.407C103.843 237.043 104.303 244.544 104.977 251.472C92.3111 252.797 81.8122 254.807 75.4905 256.188C75.861 249.417 75.7937 241.411 75.4792 232.686L103.562 229.407Z" fill="#F8F2EB"/>
<path d="M160.481 253.482C153.833 252.404 147.119 251.797 140.516 251.561C140.864 244.229 141.134 236.29 141.134 228.262L161.469 225.893C160.672 236.201 160.2 245.734 160.481 253.482Z" fill="#F8F2EB"/>
<path d="M103.304 218.493L90.5819 222.176L83.0587 218.897L87.2021 199.887C87.2021 199.887 94.3548 206.411 103.338 204.446C103.248 209.027 103.225 213.743 103.304 218.493Z" fill="#F8F2EB"/>
<path d="M142.683 235.1L108.537 243.443L107.683 243.645L92.895 247.261C85.4279 250.405 76.9727 250.248 69.6178 246.834L67.9897 246.071C62.2069 243.387 59.4895 236.683 61.7802 230.732L71.9309 175.543L91.5026 185.29V214.069H133.902L142.683 235.1Z" fill="#F3E7D0"/>
<path d="M155.282 203.615L150.442 213.384L140.842 214.046C140.651 209.948 140.37 205.906 139.966 201.987V201.976C139.966 201.976 144.514 199.213 149.746 198.248C154.956 197.282 155.282 203.615 155.282 203.615Z" fill="#F8F2EB"/>
<path d="M112.736 214.08L108.537 243.443L107.683 243.645L104.55 214.08H112.736Z" fill="#F8F2EB"/>
<path d="M112.062 212.003V223.726C104.887 226.679 97.8245 214.181 91.5027 214.08V211.037C91.5027 211.037 95.1408 208.567 101.878 209.723C108.615 210.857 112.062 212.003 112.062 212.003Z" fill="#FBBF9D"/>
<path d="M169.093 243.499L169.026 243.544C165.219 246.048 160.728 247.216 156.248 246.924C155.046 246.845 153.845 246.655 152.666 246.363L145.749 246.093L108.267 244.622L109.761 209.016L145.097 214.147L139.068 183.392L164.737 175.543L174.607 226.42C176.998 232.697 174.708 239.805 169.093 243.499Z" fill="#F3E7D0"/>
<path d="M147.624 217.853L163.423 220.379L146.815 214.046L147.624 217.853Z" fill="#F8F2EB"/>
<path d="M145.097 214.159L137.17 213.002L127.053 211.531C127.412 210.857 128.524 209.645 130.028 208.252C134.071 204.446 140.819 199.213 142.47 199.168C144.087 198.057 143.626 201.762 143.099 202.054C145.737 200.875 146.602 203.48 144.626 205.423C147.388 204.659 147.871 208.466 145.996 209.925C148.635 210.914 147.107 214.54 145.097 214.159Z" fill="#FBBF9D"/>
<path d="M147.624 193.139C149.218 180.562 160.548 176.587 160.548 176.587C158.314 178.317 151.756 185.761 147.624 193.139Z" fill="#F8F2EB"/>
<path d="M75.1873 172.14C77.3657 171.905 87.1122 175.543 91.5027 188.568C83.7436 178.058 78.2078 173.218 75.1873 172.14Z" fill="#F8F2EB"/>
<path d="M160.919 214.529C160.919 214.529 155.057 212.598 148.241 214.047C147.096 212.8 154.496 210.251 160.919 214.529Z" fill="#F8F2EB"/>
<path d="M91.5026 212.643V214.08H77.287L91.5026 212.643Z" fill="#F8F2EB"/>
<path d="M145.198 206.523C145.198 206.523 140.943 207.893 138.124 211.587C140.505 209.588 142.874 207.837 145.198 206.523Z" fill="#D68465"/>
<path d="M146.613 209.667L139.607 213.507C139.607 213.507 142.964 211.172 143.66 210.801C144.356 210.419 146.613 209.667 146.613 209.667Z" fill="#D68465"/>
<path d="M147.893 213.878C147.893 213.878 145.861 214.383 144.963 214.607C144.064 214.832 140.336 216.595 140.336 216.595C140.336 216.595 142.852 214.832 144.738 214.181C146.613 213.529 147.893 213.878 147.893 213.878Z" fill="#D68465"/>
<path d="M109.66 211.329L106.347 223.321C107.223 223.737 108.144 224.029 109.121 224.175L109.66 211.329Z" fill="#D68465"/>
<path d="M137.17 213.002L127.053 211.531C127.412 210.857 128.524 209.644 130.028 208.252C130.028 208.252 129.602 211.823 137.17 213.002Z" fill="#D68465"/>
<path d="M128.479 167.088C124.863 175.06 112.579 173.522 108.615 168.222C107.627 166.897 107.335 165.325 107.706 163.82C108.065 162.36 108.458 160.721 108.75 159.003C109.076 157.06 109.267 155.028 109.121 153.063H126.985C127.008 155.23 127.042 156.802 127.143 158.082C127.311 160.362 127.682 161.675 128.468 163.719C128.917 164.819 128.973 165.998 128.479 167.088Z" fill="#FBBF9D"/>
<path d="M127.154 158.082C118.991 162.933 111.58 160.339 108.761 159.003C109.087 157.06 109.278 155.028 109.132 153.063H126.997C127.019 155.241 127.053 156.813 127.154 158.082Z" fill="#D68465"/>
<path d="M151.621 132.952C152.452 138.365 148.556 143.811 145.479 143.811C142.403 143.811 142.897 140.341 142.897 136.052C142.897 131.773 142.403 128.292 145.479 128.292C148.556 128.304 151.094 129.573 151.621 132.952Z" fill="#FBBF9D"/>
<path d="M85.1809 123.419C84.2826 129.202 88.4597 135.03 91.7497 135.03C95.0397 135.03 94.5119 131.313 94.5119 126.743C94.5119 122.162 95.0397 118.456 91.7497 118.456C88.4597 118.445 85.7423 119.804 85.1809 123.419Z" fill="#FBBF9D"/>
<path d="M117.576 155.14C102.698 155.14 93.4453 144.945 93.4453 132.368V108.956C93.4453 96.3803 104.247 86.1846 117.576 86.1846C130.904 86.1846 141.706 96.3803 141.706 108.956V132.368C141.74 143.766 132.454 155.14 117.576 155.14Z" fill="#FBBF9D"/>
<path d="M130.567 92.6074C131.129 91.2487 133.015 88.2619 131.454 88.2057C128.153 88.0935 129.501 86.1733 123.112 86.1733C119.934 86.1733 123.437 100.288 116.779 90.1483C116.767 90.1371 113.691 88.4752 113.679 88.4865C111.31 91.3161 108.615 95.8525 98.049 89.2949C98.049 89.2949 98.7677 99.7489 106.92 102.129C117.946 105.352 124.032 99.9061 127.165 97.1775C127.39 96.9978 127.581 96.7957 127.794 96.6048C126.604 100.164 125.941 103.073 121.798 103.454C130.466 103.331 133.464 92.7085 133.464 92.7085L130.567 92.6074Z" fill="#D68465"/>
<path d="M129.512 94.46C129.591 94.3477 129.624 94.2804 129.624 94.2804V94.2691C130.612 92.7308 131.185 90.9118 131.185 88.958C131.185 83.512 126.772 79.0991 121.326 79.0991C118.609 79.0991 116.161 80.1995 114.376 81.9625L114.364 81.9737C114.353 81.9849 114.342 81.9961 114.331 82.0074C112.31 84.4215 102.451 88.1832 93.4453 82.58C93.4453 82.58 94.5007 99.3894 109.626 100.995C119.372 102.028 124.852 98.9403 127.524 96.616C128.12 96.1331 128.647 95.5829 129.119 94.9766C129.276 94.7744 129.4 94.606 129.489 94.4825C129.501 94.4825 129.501 94.4713 129.512 94.46Z" fill="#303840"/>
<path d="M129.725 86.7464C129.725 86.7464 142.324 82.7602 144.311 95.5946C146.299 108.429 145.356 118.636 145.356 118.636C142.717 118.658 142.335 122.925 141.706 126.743C141.706 126.743 140.718 95.1118 128.288 92.7987C115.847 90.4855 129.725 86.7464 129.725 86.7464Z" fill="#303840"/>
<path d="M105.438 86.7464C105.438 86.7464 92.8389 82.7602 90.8514 95.5946C88.8639 108.429 89.8071 118.636 89.8071 118.636C92.0528 119.298 93.0747 122.375 93.4564 126.743C93.4564 126.743 94.4446 95.1118 106.875 92.7987C119.305 90.4855 105.438 86.7464 105.438 86.7464Z" fill="#303840"/>
<path d="M128.951 92.7192C128.951 92.7192 127.255 102.971 121.506 103.51C128.894 103.409 131.87 92.7192 131.87 92.7192H128.951Z" fill="#303840"/>
<path d="M103.068 81.6483C103.068 81.6483 107.998 85.8254 117.823 83.153C127.648 80.4805 118.384 82.075 118.384 82.075C118.384 82.075 108.66 84.9945 103.068 81.6483Z" fill="#303840"/>
<path d="M129.422 86.8245C129.422 86.8245 132.196 82.7373 137.978 84.7023C132.712 84.1745 130.803 87.5207 130.803 87.5207L129.422 86.8245Z" fill="#303840"/>
<path d="M145.019 141.127C145.019 141.127 145.008 128.989 149.746 132.301C146.568 132.638 145.019 141.127 145.019 141.127Z" fill="#D68465"/>
<path d="M146.119 135.4C146.119 135.4 147.646 134.659 149.286 136.433C146.782 135.658 145.715 136.86 145.715 136.86L146.119 135.4Z" fill="#D68465"/>
<path d="M92.2437 132.155C92.2437 132.155 92.255 119.175 87.1908 122.712C90.5819 123.082 92.2437 132.155 92.2437 132.155Z" fill="#D68465"/>
<path d="M91.076 126.036C91.076 126.036 89.4366 125.239 87.6961 127.136C90.3685 126.317 91.5139 127.585 91.5139 127.585L91.076 126.036Z" fill="#D68465"/>
<path d="M156.292 246.924L156.248 246.935C155.046 246.856 153.845 246.665 152.666 246.373L145.749 246.104L115.622 226.476L156.292 246.924Z" fill="#F8F2EB"/>
</svg>
