<svg width="301" height="321" viewBox="0 0 301 321" fill="none" xmlns="http://www.w3.org/2000/svg">
<path opacity="0.28" d="M46.75 218.99C43.11 212.36 46.06 204.09 46.52 196.43C47.36 182.28 65.51 159.75 78.15 153.61C95.55 145.15 115.62 134.16 131.76 114.7C147.9 95.2398 169.6 84.2498 183.01 91.0198C196.42 97.7898 216.04 94.2898 226.42 114.7C238.9 139.23 231.53 144.31 234.08 152.76C236.63 161.22 244.29 171.37 247.49 181.52C250.68 191.67 246.21 218.74 244.3 222.12C242.38 225.5 237.92 246.65 233.45 256.8C228.98 266.95 218.13 298.25 186.64 283.57C183.03 281.89 166.42 267.8 151.73 282.18C137.05 296.56 106.83 294.87 98.96 291.48C91.08 288.1 80.54 284.71 74.64 270.33C68.74 255.95 58.38 228.04 51.11 223.81C49.29 222.75 47.87 221.01 46.75 218.99Z" fill="#CED1D9"/>
<path d="M203.97 107.21V110.6H85.33V107.21C85.33 104.58 87.46 102.44 90.1 102.44H199.21C201.84 102.44 203.97 104.57 203.97 107.21Z" fill="#CED1D9"/>
<path d="M203.97 110.6V181.46C203.97 184.09 201.83 186.22 199.21 186.22H90.1C87.47 186.22 85.34 184.09 85.34 181.46V110.6H203.97Z" fill="#F1F2F7"/>
<path d="M203.97 110.6V181.46C203.97 184.09 201.83 186.22 199.21 186.22H90.1C87.47 186.22 85.34 184.09 85.34 181.46V110.6H203.97Z" fill="#F1F2F7" stroke="#0B8961" stroke-width="0.25" stroke-miterlimit="10"/>
<path d="M203.97 107.21V110.6H85.33V107.21C85.33 104.58 87.46 102.44 90.1 102.44H199.21C201.84 102.44 203.97 104.57 203.97 107.21Z" stroke="white" stroke-width="1.3" stroke-miterlimit="10"/>
<path d="M199.2 106.69C199.2 107.49 198.55 108.13 197.76 108.13C196.96 108.13 196.32 107.48 196.32 106.69C196.32 105.9 196.97 105.25 197.76 105.25C198.55 105.25 199.2 105.9 199.2 106.69Z" fill="#0F8861"/>
<path d="M194.49 106.69C194.49 107.49 193.84 108.13 193.05 108.13C192.26 108.13 191.61 107.48 191.61 106.69C191.61 105.9 192.26 105.25 193.05 105.25C193.84 105.25 194.49 105.9 194.49 106.69Z" fill="#0F8861"/>
<path d="M189.78 106.69C189.78 107.49 189.13 108.13 188.34 108.13C187.55 108.13 186.9 107.48 186.9 106.69C186.9 105.9 187.55 105.25 188.34 105.25C189.13 105.25 189.78 105.9 189.78 106.69Z" fill="#0F8861"/>
<path d="M171.73 164.34L172.44 186.21H159.93L157.79 165.27C157.54 162.83 158.58 160.56 160.36 159.12C161.38 158.3 162.64 157.74 164.04 157.6C164.23 157.58 164.41 157.57 164.59 157.57C168.2 157.48 171.33 160.2 171.7 163.85C171.72 164.01 171.73 164.19 171.73 164.34Z" fill="#E8E0EF"/>
<path d="M127.98 129.21L126.39 148.63C126.28 149.95 127.15 165.3 128.44 165.61L142.5 169.06L156.36 162.64C157.32 162.2 157.93 147.09 157.92 146.04L157.89 129.2H127.98V129.21Z" fill="#22202C"/>
<path d="M131.98 120.74C134.34 117.21 138.36 114.89 142.92 114.89H142.97C150.23 114.89 156.12 120.78 156.12 128.04C156.12 129.19 155.97 130.31 155.69 131.37C155.59 131.76 155.47 132.14 155.34 132.51L154.37 136.38L153.16 141.19C152.96 141.95 152.66 142.72 152.27 143.48C152.27 143.48 152.27 143.48 152.27 143.49C150.46 146.99 146.79 150.13 142.98 150.15H142.93C138.3 150.12 133.86 145.48 132.74 141.19L130.56 132.51C130.43 132.14 130.31 131.76 130.21 131.37C129.93 130.31 129.78 129.19 129.78 128.04C129.77 125.34 130.58 122.83 131.98 120.74Z" fill="#F69574"/>
<path d="M152.63 142.7C152.63 142.7 155.49 134.87 153.18 128.36C150.62 121.14 142.97 114.89 142.97 114.89C142.97 114.89 152.46 113.32 156.72 124.08C160.98 134.84 152.63 142.7 152.63 142.7Z" fill="#22202C"/>
<path d="M133.28 142.7C133.28 142.7 130.42 134.87 132.73 128.36C135.29 121.14 142.94 114.89 142.94 114.89C142.94 114.89 133.45 113.32 129.19 124.08C124.93 134.84 133.28 142.7 133.28 142.7Z" fill="#22202C"/>
<path d="M148.91 160.18C148.36 162.5 146.38 163.6 143.87 163.81C141.36 164.02 139.1 162.55 138.17 160.35L138.18 160.25L138.72 145.34H147.62L148.91 160.18Z" fill="#F69574"/>
<path d="M147.89 148.46C147.89 148.46 145.21 150.11 142.91 150.15C139.55 150.21 138.58 148.84 138.58 148.84C138.58 148.84 139.58 151.29 143.01 151.29C143.01 151.29 146.08 151.23 147.89 148.46Z" fill="#F3724D"/>
<path d="M155.25 129.47C155.25 129.47 140.79 129.59 136.17 122.12L138.97 115.08C138.97 115.08 146.91 113.3 152.48 118.87C158.04 124.44 155.25 129.47 155.25 129.47Z" fill="#22202C"/>
<path d="M153.91 136.99C153.91 136.99 155.05 138.62 156.6 134.04C158.15 129.46 155.55 130.8 155.55 130.8C155.43 131.28 155.28 131.75 155.11 132.2L153.91 136.99Z" fill="#F69574"/>
<path d="M132.24 136.99C132.24 136.99 131.1 138.62 129.55 134.04C128 129.46 130.6 130.8 130.6 130.8C130.72 131.28 130.87 131.75 131.04 132.2L132.24 136.99Z" fill="#F69574"/>
<path d="M165.14 183.12C164.89 184.19 164.65 185.22 164.41 186.21H146.67V186.22H145.02L145.01 186.21H126.32L124.28 174.16L122.22 161.98L123.83 160.94H123.85L127.23 160.77L133.76 160.45L135.1 160.38L138.17 160.23L138.52 160.21L138.94 160.19L148.7 159.71L148.87 159.7L153 159.5L153.1 159.49L154.54 159.42L157.11 159.29L160.37 159.13L162.93 159C162.93 159 163.94 157.89 164.64 159.43C166.16 162.81 168.14 170.26 165.14 183.12Z" fill="#0F8861"/>
<path d="M153.12 158.16C153.04 163.01 149.08 166.91 144.21 166.91C139.56 166.91 138.46 161.32 138.05 156.79L149.06 155.99C149.06 155.99 152.81 157.49 153.12 158.16Z" fill="#F69574"/>
<path d="M145.48 185.18L145.75 186.21V186.22H145.02L145.01 186.21H125.57L124.33 180.66L123.07 175.36L119.55 160.6V160.59L119.7 160.56H119.72L127.04 159.05L137.24 156.96L138.05 156.79L138.18 157.29L138.27 157.63V157.64L138.94 160.19L139.48 162.25L140.07 164.52L141.18 168.74L145.48 185.18Z" fill="white"/>
<path d="M166.55 179.55C166.31 181.52 165.68 183.75 164.94 186.21H146.66V186.22H146.05V186.21L146.23 184.38L148.01 166.51V166.5L148.06 166.03V166.02L148.54 161.16V161.15L148.68 159.69L148.77 158.78V158.77L148.99 156.5L149.04 155.97V155.96L149.91 156.03L157.31 156.79L164.57 157.54L164.62 157.55C164.64 157.58 168.14 166.33 166.55 179.55Z" fill="white"/>
<path d="M156.71 162.71L151.99 169.34C151.23 170.41 150.66 171.59 150.31 172.86L146.67 186.21V186.22H145.02L145.01 186.21L138.09 173.25C137.08 171.36 135.56 169.82 133.69 168.78L130.01 166.74C129.66 166.54 129.42 166.22 129.33 165.84V165.83C129.32 165.79 129.31 165.74 129.31 165.7C129.25 165.27 129.39 164.84 129.7 164.53L133.77 160.45L137.24 156.96L138.05 156.79L138.18 157.29L138.11 157.36L135.11 160.37L130.34 165.15C130.23 165.26 130.18 165.41 130.21 165.57C130.23 165.72 130.31 165.86 130.46 165.93L130.99 166.23L131 166.24L134.14 167.99C136.16 169.12 137.81 170.79 138.9 172.83L145.5 185.18L145.86 185.85L146.27 184.38L149.48 172.63C149.86 171.25 150.46 169.97 151.28 168.82L155.34 163.13L155.35 163.12L156.01 162.18C156.16 161.96 156.12 161.65 155.89 161.49L153.12 159.47L153.03 159.4L149.04 156.5L149.09 155.97V155.96L149.96 156.03L151 156.79H151.01L151.03 156.81L153.14 158.35L154.57 159.39L156.43 160.75C156.62 160.89 156.76 161.06 156.86 161.25C156.86 161.25 156.86 161.25 156.86 161.26C157.04 161.73 157.02 162.28 156.71 162.71Z" fill="#D2C7E2"/>
<path d="M154.61 177.02C154.61 177.85 153.94 178.52 153.11 178.52C152.29 178.52 151.62 177.85 151.62 177.02C151.62 176.2 152.29 175.53 153.11 175.53C153.94 175.53 154.61 176.2 154.61 177.02Z" fill="#D2C7E2"/>
<path d="M153.12 183.15C153.12 183.98 152.45 184.65 151.62 184.65C150.8 184.65 150.13 183.98 150.13 183.15C150.13 182.33 150.8 181.66 151.62 181.66C152.45 181.65 153.12 182.32 153.12 183.15Z" fill="#D2C7E2"/>
<path d="M126.49 171.95C126.36 172.09 126.23 172.24 126.1 172.37L124.29 174.17L123.08 175.38L112.13 186.23H95.88L115.86 162.87C116.86 161.7 118.16 160.95 119.55 160.62C119.6 160.61 119.65 160.59 119.7 160.58H119.72C121.09 160.29 122.54 160.41 123.85 160.96C124.51 161.23 125.14 161.61 125.72 162.11C128.65 164.6 129 169.01 126.49 171.95Z" fill="white"/>
<path d="M191.05 173.94C191.05 177.3 188.32 180.03 184.96 180.03C181.6 180.03 178.87 177.3 178.87 173.94C178.87 170.58 181.6 167.85 184.96 167.85C188.33 167.85 191.05 170.58 191.05 173.94Z" fill="#0F8861"/>
<path d="M185.56 175.68H182.92C182.24 175.68 181.69 175.13 181.69 174.45V173.43C181.69 172.75 182.24 172.2 182.92 172.2H185.56C186.24 172.2 186.79 172.75 186.79 173.43V174.45C186.79 175.13 186.24 175.68 185.56 175.68Z" fill="white"/>
<path d="M186.95 174.35L187.68 174.88C188.01 175.12 188.47 174.88 188.47 174.48V173.43C188.47 173.02 188.01 172.79 187.68 173.03L186.95 173.56C186.67 173.74 186.67 174.15 186.95 174.35Z" fill="white"/>
<path d="M175.07 173.94C175.07 177.37 172.29 180.15 168.86 180.15C165.43 180.15 162.65 177.37 162.65 173.94C162.65 170.51 165.43 167.73 168.86 167.73C172.29 167.73 175.07 170.51 175.07 173.94Z" fill="#0F8861"/>
<path d="M168.87 174.32C168.05 174.32 167.39 173.66 167.39 172.84V171.29C167.39 170.47 168.05 169.81 168.87 169.81C169.69 169.81 170.35 170.47 170.35 171.29V172.84C170.35 173.65 169.69 174.32 168.87 174.32Z" fill="white"/>
<path d="M170.88 173.03C170.88 174.15 169.97 175.05 168.86 175.05C167.74 175.05 166.84 174.14 166.84 173.03" stroke="white" stroke-width="1.1243" stroke-miterlimit="10" stroke-linecap="round"/>
<path d="M168.86 175.28V177.6" stroke="white" stroke-width="1.1243" stroke-miterlimit="10" stroke-linecap="round"/>
<path d="M168.84 178.09H168.88C169.4 178.09 169.57 177.4 169.12 177.15L168.86 177.01L168.6 177.15C168.15 177.4 168.32 178.09 168.84 178.09Z" fill="white"/>
<path opacity="0.7" d="M26.13 51.8999V111.71C26.13 113.94 27.94 115.73 30.15 115.73H122.26C124.48 115.73 126.28 113.94 126.28 111.71V51.8999H26.13Z" fill="#5D82C2"/>
<path d="M26.43 52.1699V111.98C26.43 114.21 28.24 116 30.45 116H122.56C124.78 116 126.58 114.21 126.58 111.98V52.1699H26.43Z" fill="#F1F2F7"/>
<path opacity="0.7" d="M26.43 47.2402V50.1002H126.58V47.2402C126.58 45.0202 124.78 43.2202 122.56 43.2202H30.46C28.23 43.2202 26.43 45.0202 26.43 47.2402Z" fill="#E8E0EF"/>
<path opacity="0.7" d="M26.43 47.2402V50.1002H126.58V47.2402C126.58 45.0202 124.78 43.2202 122.56 43.2202H30.46C28.23 43.2202 26.43 45.0202 26.43 47.2402Z" fill="#E8E0EF"/>
<path opacity="0.7" d="M26.43 47.2402V50.1002H126.58V47.2402C126.58 45.0202 124.78 43.2202 122.56 43.2202H30.46C28.23 43.2202 26.43 45.0202 26.43 47.2402Z" fill="#E8E0EF"/>
<path d="M26.43 47.2402V50.1002H126.58V47.2402C126.58 45.0202 124.78 43.2202 122.56 43.2202H30.46C28.23 43.2202 26.43 45.0202 26.43 47.2402Z" fill="#CED1D9"/>
<path d="M112.81 46.8103C112.81 47.4803 113.35 48.0303 114.03 48.0303C114.7 48.0303 115.25 47.4903 115.25 46.8103C115.25 46.1403 114.71 45.5903 114.03 45.5903C113.35 45.5903 112.81 46.1403 112.81 46.8103Z" fill="#0F8861"/>
<path d="M116.79 46.8103C116.79 47.4803 117.33 48.0303 118.01 48.0303C118.68 48.0303 119.23 47.4903 119.23 46.8103C119.23 46.1403 118.69 45.5903 118.01 45.5903C117.33 45.5903 116.79 46.1403 116.79 46.8103Z" fill="#0F8861"/>
<path d="M120.76 46.8103C120.76 47.4803 121.3 48.0303 121.98 48.0303C122.65 48.0303 123.2 47.4903 123.2 46.8103C123.2 46.1403 122.66 45.5903 121.98 45.5903C121.31 45.5903 120.76 46.1403 120.76 46.8103Z" fill="#0F8861"/>
<path d="M122.26 45.02H30.16C27.94 45.02 26.14 46.82 26.14 49.04V51.9V111.71C26.14 113.94 27.95 115.73 30.16 115.73H122.27C124.49 115.73 126.29 113.94 126.29 111.71V51.9V49.04C126.28 46.82 124.48 45.02 122.26 45.02Z" stroke="#00A14B" stroke-width="0.25" stroke-miterlimit="10"/>
<path d="M84.84 106.24C84.88 106.45 84.93 106.67 84.99 106.88L87.44 115.73H101.6L99.41 103.69C99.05 101.75 97.97 100.06 96.35 98.9299C95.87 98.5999 95.37 98.3299 94.84 98.1199C94.83 98.1099 94.83 98.1099 94.82 98.1099C93.56 97.6099 92.18 97.4599 90.8 97.6999C88.86 98.0499 87.17 99.1199 86.04 100.72C84.91 102.35 84.49 104.3 84.84 106.24Z" fill="#E8E0EF"/>
<path d="M42.16 115.73H58.73L62.61 108.88C62.71 108.7 62.81 108.51 62.91 108.32C64.73 104.4 63.02 99.7198 59.09 97.8998C56.81 96.8398 54.26 96.9798 52.18 98.0498C52.16 98.0598 52.15 98.0598 52.14 98.0698C52.03 98.1298 51.91 98.1998 51.8 98.2598C51.55 98.3998 51.3 98.5598 51.07 98.7398C50.07 99.4998 49.24 100.49 48.68 101.7L42.16 115.73Z" fill="#E8E0EF"/>
<path d="M51.79 98.2702L52.2 115.74H94.6C94.69 114.58 94.79 113.42 94.89 112.26L96.04 98.7802C95.65 98.5502 95.25 98.3302 94.83 98.1302C94.82 98.1202 94.82 98.1202 94.81 98.1202C91.8 96.5802 88.51 95.6902 85.14 95.4702C84.75 95.4402 84.35 95.4302 83.95 95.4202H83.8L83.44 95.4102L82.44 95.3902L80.25 95.3502L68.44 95.1402L66.26 95.1002L65.22 95.0802L64.87 95.0702H64.66L64.3 95.0602C64.04 95.0502 63.78 95.0502 63.52 95.0602C59.71 95.1202 55.96 96.0702 52.58 97.8302C52.56 97.8402 52.53 97.8602 52.5 97.8702C52.4 97.9202 52.29 97.9802 52.19 98.0402C52.17 98.0502 52.16 98.0502 52.15 98.0602C52.02 98.1402 51.91 98.2002 51.79 98.2702Z" fill="white"/>
<path d="M64.83 95.3901C64.83 99.8201 68.57 103.45 73.35 103.89C73.37 103.89 73.4 103.9 73.42 103.9C73.71 103.92 74.01 103.94 74.32 103.94C74.62 103.94 74.92 103.93 75.21 103.9C75.22 103.9 75.22 103.9 75.22 103.9C80.03 103.49 83.79 99.8601 83.81 95.4301L83.45 95.4201L82.45 95.4001L80.26 95.3601L68.45 95.1501L66.27 95.1101L65.23 95.0901L64.88 95.0801H64.85C64.83 95.1701 64.83 95.2801 64.83 95.3901Z" fill="#D77867"/>
<path d="M63.48 95.3902C63.48 100.84 68.34 105.28 74.32 105.28C80.04 105.28 84.91 100.83 85.15 95.4702C84.76 95.4402 84.36 95.4302 83.96 95.4202H83.81L83.45 95.4102L82.45 95.3902C82.35 97.4102 81.34 99.2502 79.8 100.56C78.34 101.8 76.41 102.58 74.32 102.58C72.27 102.58 70.4 101.9 68.96 100.8H68.95C67.27 99.5002 66.2 97.5902 66.18 95.4802C66.19 95.4502 66.19 95.4302 66.2 95.4002C66.23 95.2902 66.25 95.1802 66.26 95.1002L65.22 95.0802L64.87 95.0702H64.66L64.3 95.0602C64.04 95.0502 63.78 95.0502 63.52 95.0602C63.49 95.1702 63.48 95.2702 63.48 95.3902Z" fill="#0F8861"/>
<path d="M70.26 76.3198L69.28 86.5698L68.67 92.8698C68.67 92.8698 68.18 97.4198 68.19 97.8898C68.18 98.0498 68.19 98.1998 68.21 98.3498C68.4 100.58 69.9 100.17 71.78 101.08C72.73 101.55 73.82 101.76 74.97 101.66C75.9 101.58 76.76 101.29 77.52 100.85C79.14 99.9198 80.14 100.52 80.38 98.5998C80.44 98.1798 80.45 97.7498 80.41 97.2998C80.38 96.9298 79.77 89.7598 79.77 89.7598L78.89 77.0398V77.0298L70.26 76.3198Z" fill="#D77867"/>
<path d="M79.58 86.7696L69.58 84.0796L69.47 84.9796C69.47 84.9796 71.78 88.7396 79.85 90.5896L79.58 86.7696Z" fill="#BB6053"/>
<path d="M87.92 70.7399L87.12 78.1499C86.54 83.5199 84.16 87.9199 79.09 88.8099C78.53 88.9099 77.55 88.8799 76.53 88.7599C74.88 88.5699 73.3 88.0099 71.89 87.1399L70.56 86.3199C68.99 85.1399 67.75 83.9199 67.39 82.0999L65.24 71.3599C63.81 64.2099 69.33 57.3099 76.62 57.6199C76.88 57.6299 77.14 57.6499 77.4 57.6799C80.65 58.0299 83.46 59.6699 85.36 62.0299C87.26 64.3999 88.27 67.4899 87.92 70.7399Z" fill="#D77867"/>
<path d="M83.17 64.63C81.85 65.84 80.03 66.33 78.26 66.57C76.49 66.81 74.68 66.83 72.95 67.26C71.22 67.7 69.5 68.63 68.66 70.21C68.3 70.88 68.12 71.63 67.87 72.35C67.62 73.07 67.28 73.79 66.7 74.28C66.12 74.77 65.23 74.96 64.58 74.57C64.27 74.38 64.04 74.08 63.84 73.78C62.2 71.28 62.11 67.93 63.3 65.19C64.49 62.44 66.83 60.29 69.53 59C72.23 57.71 75.26 57.23 78.25 57.23C79.45 57.23 80.66 57.31 81.78 57.72C82.81 58.1 83.92 58.84 84.39 59.87C84.84 60.87 84.75 62.06 84.32 63.05C84.04 63.63 83.65 64.18 83.17 64.63Z" fill="#1C253E"/>
<path d="M68.29 75.5998C68.29 75.5998 68.19 72.9998 65.76 73.4398C63.33 73.8898 64.22 80.2998 69.25 79.5398L68.29 75.5998Z" fill="#1C253E"/>
<path d="M86.31 68.4699C85.23 68.4199 84.21 67.8999 83.38 67.1999C82.4 66.3799 81.62 65.2899 81.36 64.0399C81.1 62.7899 81.42 61.3999 82.33 60.5099C83.24 59.6199 84.76 59.3599 85.84 60.0399C86.58 60.5099 87.02 61.3099 87.38 62.1099C87.88 63.2299 88.28 64.3899 88.57 65.5899C88.64 65.8899 88.71 66.1899 88.76 66.4999C88.8 66.7099 88.86 66.9399 88.86 67.1599C88.86 67.5899 88.41 67.8699 88.08 68.0599C87.54 68.3599 86.92 68.4999 86.31 68.4699Z" fill="#1C253E"/>
<path d="M53.83 110.11C57.3591 110.11 60.22 107.249 60.22 103.72C60.22 100.191 57.3591 97.3301 53.83 97.3301C50.3009 97.3301 47.44 100.191 47.44 103.72C47.44 107.249 50.3009 110.11 53.83 110.11Z" fill="#0F8861"/>
<path d="M54.51 105.55H51.62C50.94 105.55 50.39 105 50.39 104.32V103.13C50.39 102.45 50.94 101.9 51.62 101.9H54.51C55.19 101.9 55.74 102.45 55.74 103.13V104.32C55.74 105 55.19 105.55 54.51 105.55Z" fill="white"/>
<path d="M55.87 104.13L56.7 104.73C57.03 104.97 57.49 104.73 57.49 104.33V103.13C57.49 102.72 57.03 102.49 56.7 102.73L55.87 103.33C55.6 103.52 55.6 103.93 55.87 104.13Z" fill="white"/>
<path d="M37.95 110.11C41.4791 110.11 44.34 107.249 44.34 103.72C44.34 100.191 41.4791 97.3301 37.95 97.3301C34.4209 97.3301 31.56 100.191 31.56 103.72C31.56 107.249 34.4209 110.11 37.95 110.11Z" fill="#0F8861"/>
<path d="M37.96 104.11C37.12 104.11 36.43 103.43 36.43 102.58V100.99C36.43 100.15 37.11 99.46 37.96 99.46C38.8 99.46 39.49 100.14 39.49 100.99V102.58C39.49 103.42 38.81 104.11 37.96 104.11Z" fill="white"/>
<path d="M40.03 102.78C40.03 103.93 39.1 104.86 37.95 104.86C36.8 104.86 35.87 103.93 35.87 102.78" stroke="white" stroke-width="0.9121" stroke-miterlimit="10" stroke-linecap="round"/>
<path d="M37.95 105.1V107.49" stroke="white" stroke-width="0.9121" stroke-miterlimit="10" stroke-linecap="round"/>
<path d="M37.88 107.99H38.03C38.55 107.99 38.72 107.3 38.27 107.05L37.95 106.88L37.63 107.05C37.18 107.3 37.36 107.99 37.88 107.99Z" fill="white"/>
<path d="M268.99 190.83V250.64C268.99 252.86 267.19 254.66 264.97 254.66H172.86C170.64 254.66 168.84 252.86 168.84 250.64V190.83H268.99Z" fill="#F1F2F7"/>
<path d="M200.45 253C199.58 250.13 199.01 247.18 198.74 244.21C198.56 242.29 198.51 240.36 198.59 238.43L198.62 237.48C198.73 234.41 199.24 232.03 202.17 231.75C202.25 231.74 202.33 231.74 202.42 231.73L202.98 231.7L206.58 231.5L208.19 231.41H208.2L210.93 231.26H210.98L212.84 231.15L219.04 230.8L222.5 230.65L224.93 230.55L227.34 230.45L227.43 230.44L233.48 230.18C234.01 230.15 234.52 229.97 235.02 230.06H235.03C235.31 230.11 235.58 230.17 235.84 230.26C235.98 230.3 236.12 230.35 236.25 230.4C236.26 230.41 236.28 230.41 236.29 230.42C237.81 231.03 239.08 232.18 239.81 233.67C240.1 234.26 240.31 234.9 240.42 235.58L240.49 236.01C240.5 236.06 240.51 236.12 240.51 236.18C240.9 238.78 241.07 241.39 241 244C240.93 246.49 240.66 248.95 240.18 251.39C240.16 251.51 240.14 251.62 240.11 251.74C240.07 251.96 240.02 252.18 239.97 252.41C239.93 252.61 239.89 252.81 239.84 253H201.68" fill="#0F8861"/>
<path d="M210.96 231.26C211.09 233.45 214.28 235.02 218.14 234.8C222 234.58 225.04 232.74 224.91 230.55L214.57 231.05L210.96 231.26Z" fill="#0F8861"/>
<path d="M198.34 253H186.01L196.56 235.28L196.59 235.22C196.7 235.06 196.8 234.89 196.91 234.73C198.02 233.18 199.64 232.19 201.37 231.84C201.63 231.79 201.9 231.75 202.17 231.73C202.43 231.71 202.7 231.7 202.97 231.71C204.37 231.73 205.77 232.17 206.99 233.04C207.11 233.12 207.22 233.21 207.32 233.3C209.17 234.97 208.62 237.96 208.31 240.38C208.17 241.52 209.4 242.11 208.69 243.11L207.71 244.49L201.65 253.02" fill="white"/>
<path d="M198.34 253L197.67 248.07L198.73 244.2L202.16 231.74L202.17 231.72L202.18 231.69L203.54 231.66L208.18 231.39L208.19 231.41L212.62 253H201.66" fill="white"/>
<path d="M212.62 253H206.82L206.38 252.11C205.98 251.33 205.93 250.41 206.22 249.59L207.75 245.32C207.86 245.03 207.83 244.72 207.71 244.46C207.57 244.16 207.3 243.93 206.96 243.84L204.28 243.2C203.59 243.04 203.22 242.29 203.51 241.64L207.32 233.27L208.18 231.39L208.19 231.37L208.2 231.39L212.62 253Z" fill="#E8E0EF"/>
<path d="M240.55 233.86L240.49 236.18L240.09 251.3L240.08 251.74L240.04 253H226.54L227.31 230.44L227.32 230.31L237.67 229.84C237.83 229.83 237.99 229.82 238.14 229.82C238.56 229.82 236.73 230.11 237.49 230.55L240.55 233.86Z" fill="white"/>
<path d="M253.76 250.43C254.2 251.27 254.63 252.12 255.07 252.99H241.18C240.85 252.46 240.51 251.92 240.16 251.38C240.14 251.34 240.12 251.31 240.1 251.28C239.45 250.26 238.78 249.23 238.08 248.15C236.54 245.75 234.9 243.3 233.42 241.11C233.19 240.77 232.97 240.44 232.75 240.12L232.62 239.93C231.96 238.9 231.63 237.75 231.6 236.6C231.52 234.35 232.6 232.12 234.63 230.83C235.01 230.58 235.41 230.39 235.82 230.23C236.42 230 237.05 229.86 237.68 229.81C237.84 229.8 238 229.79 238.15 229.79C238.63 229.79 239.11 229.84 239.58 229.95C241.29 230.33 242.76 231.36 243.71 232.84C245.51 235.65 247.14 238.44 248.93 241.52C250.6 244.49 252.23 247.48 253.76 250.43Z" fill="white"/>
<path d="M233.42 241.13C233.34 241.2 233.24 241.26 233.14 241.3L230.6 242.38C229.98 242.64 229.74 243.38 230.07 243.97L232.3 247.92C232.73 248.68 232.83 249.59 232.58 250.42L231.8 253H226.57L227.34 230.44L227.35 230.31L227.43 230.44L231.61 236.63L233.64 239.64C233.95 240.13 233.85 240.77 233.42 241.13Z" fill="#E8E0EF"/>
<path d="M212.85 232.9C213.6 235.01 215.66 232.7 218.02 232.63C220.39 232.57 222.03 234.06 222.67 231.91L221.79 225.92L221.21 222.05L221.18 221.81L221.03 220.83L212.64 221.04L212.68 223.13L212.72 225.49L212.74 226.92L212.78 228.96L212.85 232.9Z" fill="#F69574"/>
<path d="M212.72 225.5C217.68 225.18 220.29 223.01 221.21 222.05L221.18 221.81C217.17 223.63 212.89 223.16 212.68 223.13L212.72 225.5Z" fill="#F3724D"/>
<path d="M204.12 222.24C203.82 222.24 203.59 221.97 203.63 221.68C203.85 220.09 204.68 219.93 204.75 218C204.83 215.86 203.82 215.82 203.9 213.69C203.98 211.55 204.99 211.59 205.07 209.45C205.15 207.31 203.83 205.95 205.63 200.92C207.17 196.64 207.17 202.35 207.55 201.8C207.94 201.25 205.46 203.21 205.85 202.66C206.24 202.11 207.06 202.69 207.45 202.14C207.84 201.59 207.01 201.01 207.39 200.46C207.78 199.91 208.6 200.49 208.99 199.94C209.38 199.39 208.55 198.81 208.93 198.26C209.32 197.71 210.14 198.29 210.53 197.74C210.92 197.19 210.09 196.61 210.48 196.05C210.96 195.37 211.08 195.95 212.28 195.65C212.73 195.54 213.21 195.53 213.63 195.72C214.7 196.2 214.15 197.14 215.1 197.65C216.02 198.14 216.49 197.25 217.41 197.74C218.33 198.23 217.85 199.12 218.77 199.61C219.69 200.1 220.17 199.21 221.08 199.7C222 200.19 221.52 201.08 222.44 201.57C223.36 202.06 223.84 201.17 224.75 201.66C225.67 202.15 225.19 203.17 226.16 203.56C227.03 203.91 227.49 201.11 227.83 202.09C228.59 204.28 228.75 206.38 228.8 208.69C228.86 211.01 227.85 211.03 227.9 213.35C227.96 215.67 228.97 215.64 229.03 217.96C229.08 220.1 228.22 220.29 228.14 222.13C228.13 222.4 227.9 222.61 227.63 222.61L204.12 222.24Z" fill="#22202C"/>
<path d="M228.27 202.72C228.24 202.52 228.21 202.34 228.17 202.15C227.04 196.46 221.7 192.41 215.92 192.93C211.61 193.32 208.23 195.88 206.54 199.3H206.53C206.2 199.96 205.93 200.67 205.73 201.39C205.73 201.39 205.74 201.4 205.72 201.4C205.67 201.5 205.24 202.39 205.24 204.75V204.87C205.25 207 205.61 210.27 206.86 215.17C207.03 215.85 207.17 216.55 207.32 217.24C207.36 217.39 207.39 217.55 207.43 217.7C207.96 219.64 209.11 221.23 210.62 222.33C211.24 222.79 211.93 223.16 212.66 223.44C214.28 224.05 216.12 224.18 217.92 223.68C218.87 223.42 219.72 223.02 220.49 222.49C220.73 222.33 220.96 222.15 221.17 221.96C221.66 221.55 222.1 221.09 222.48 220.58C222.48 220.58 222.52 220.51 222.61 220.39C222.77 220.16 222.93 219.92 223.07 219.67C223.11 219.6 223.15 219.53 223.2 219.45C223.94 218.25 225.13 216.2 226.2 213.81C226.94 212.18 227.61 210.4 228.05 208.63C228.07 208.53 228.1 208.43 228.12 208.32C228.38 207.21 228.53 206.1 228.54 205.05C228.56 204.24 228.47 203.45 228.27 202.72Z" fill="#F69574"/>
<path d="M216.67 195.85C216.21 197.8 216.64 199.94 217.83 201.55C219.02 203.16 220.94 204.21 222.94 204.33C223.25 205.55 224.55 208.09 225.58 208.82C226.61 209.55 227.6 208.58 228.86 208.46C228.86 208.46 229.33 204.35 228.78 202.03C227.37 196.09 221.94 191.78 215.88 192.32C215.2 192.38 214.52 192.5 213.86 192.67C209.65 193.75 206.32 197.02 205.16 201.22L204.09 204.99C206.98 204.99 209.59 203.23 211.03 200.73C213.22 201.12 215.58 200.43 217.2 198.91C217 198.82 216.8 198.73 216.6 198.64L216.67 195.85Z" fill="#22202C"/>
<path d="M225.28 210.22C225.28 210.22 225.25 207.79 227.54 208.09C229.83 208.39 229.31 214.41 224.58 213.95L225.28 210.22Z" fill="#F69574"/>
<path d="M202.82 242.167C203.344 238.677 200.939 235.423 197.449 234.9C193.959 234.376 190.705 236.781 190.182 240.271C189.659 243.761 192.064 247.015 195.554 247.538C199.043 248.061 202.297 245.656 202.82 242.167Z" fill="#0F8861"/>
<path d="M197.19 243.03H194.3C193.62 243.03 193.07 242.48 193.07 241.8V240.61C193.07 239.93 193.62 239.38 194.3 239.38H197.19C197.87 239.38 198.42 239.93 198.42 240.61V241.8C198.43 242.48 197.87 243.03 197.19 243.03Z" fill="white"/>
<path d="M198.56 241.61L199.39 242.21C199.72 242.45 200.18 242.21 200.18 241.81V240.61C200.18 240.2 199.72 239.97 199.39 240.21L198.56 240.81C198.28 241 198.28 241.41 198.56 241.61Z" fill="white"/>
<path d="M186.89 242.546C187.626 239.094 185.425 235.7 181.973 234.964C178.522 234.227 175.127 236.429 174.391 239.88C173.655 243.331 175.856 246.726 179.307 247.462C182.759 248.199 186.154 245.997 186.89 242.546Z" fill="#0F8861"/>
<path d="M180.65 241.59C179.81 241.59 179.12 240.91 179.12 240.06V238.47C179.12 237.63 179.8 236.94 180.65 236.94C181.49 236.94 182.18 237.62 182.18 238.47V240.06C182.17 240.9 181.49 241.59 180.65 241.59Z" fill="white"/>
<path d="M182.72 240.26C182.72 241.41 181.79 242.34 180.64 242.34C179.49 242.34 178.56 241.41 178.56 240.26" stroke="white" stroke-width="0.9121" stroke-miterlimit="10" stroke-linecap="round"/>
<path d="M180.64 242.58V244.97" stroke="white" stroke-width="0.9121" stroke-miterlimit="10" stroke-linecap="round"/>
<path d="M180.56 245.47H180.71C181.23 245.47 181.4 244.78 180.95 244.53L180.63 244.36L180.31 244.53C179.87 244.78 180.04 245.47 180.56 245.47Z" fill="white"/>
<path d="M268.99 186.3V189.16H168.84V186.3C168.84 184.08 170.64 182.28 172.86 182.28H264.96C267.19 182.28 268.99 184.08 268.99 186.3Z" fill="#CED1D9"/>
<path d="M263.74 187.09C264.414 187.09 264.96 186.544 264.96 185.87C264.96 185.196 264.414 184.65 263.74 184.65C263.066 184.65 262.52 185.196 262.52 185.87C262.52 186.544 263.066 187.09 263.74 187.09Z" fill="#0F8861"/>
<path d="M260.98 185.87C260.98 186.54 260.44 187.09 259.76 187.09C259.09 187.09 258.54 186.55 258.54 185.87C258.54 185.2 259.08 184.65 259.76 184.65C260.44 184.65 260.98 185.2 260.98 185.87Z" fill="#0F8861"/>
<path d="M255.79 187.09C256.464 187.09 257.01 186.544 257.01 185.87C257.01 185.196 256.464 184.65 255.79 184.65C255.116 184.65 254.57 185.196 254.57 185.87C254.57 186.544 255.116 187.09 255.79 187.09Z" fill="#0F8861"/>
<path d="M268.99 186.3C268.99 184.08 267.19 182.28 264.97 182.28H172.87C170.65 182.28 168.85 184.08 168.85 186.3V189.16V248.97C168.85 251.19 170.65 252.99 172.87 252.99H264.98C267.2 252.99 269 251.19 269 248.97V189.16V186.3H268.99Z" stroke="#0B8961" stroke-width="0.25" stroke-miterlimit="10"/>
<path d="M121.33 203.21V252.53C121.33 254.36 119.84 255.84 118.01 255.84H42.07C40.24 255.84 38.76 254.36 38.76 252.53V203.21H121.33Z" fill="#F1F2F7"/>
<path d="M38.76 200.85V203.21H121.33V200.85C121.33 199.02 119.84 197.53 118.01 197.53H42.07C40.24 197.54 38.76 199.02 38.76 200.85Z" fill="#CED1D9"/>
<path d="M42.08 200.49C42.08 201.04 42.53 201.49 43.08 201.49C43.63 201.49 44.08 201.04 44.08 200.49C44.08 199.94 43.63 199.49 43.08 199.49C42.53 199.49 42.08 199.94 42.08 200.49Z" fill="#0F8861"/>
<path d="M45.36 200.49C45.36 201.04 45.81 201.49 46.36 201.49C46.91 201.49 47.36 201.04 47.36 200.49C47.36 199.94 46.91 199.49 46.36 199.49C45.81 199.49 45.36 199.94 45.36 200.49Z" fill="#0F8861"/>
<path d="M48.64 200.49C48.64 201.04 49.09 201.49 49.64 201.49C50.19 201.49 50.64 201.04 50.64 200.49C50.64 199.94 50.19 199.49 49.64 199.49C49.09 199.49 48.64 199.94 48.64 200.49Z" fill="#0F8861"/>
<path d="M86.67 240.83L86.64 241.27L86.44 244.3L86.4 244.85L85.67 255.84H71.43L71.52 242.46L71.53 241.9L71.55 239.19V239.13L72.95 239.29L74.41 239.45L74.77 239.49L74.86 239.5L83.96 240.53L84.29 240.56L85.04 240.64L86.67 240.83Z" fill="#B7D2EE"/>
<path d="M76 223.24L75.35 232.05L74.95 237.46C74.95 237.46 74.61 241.37 74.63 241.77C74.62 241.9 74.64 242.03 74.65 242.17C74.85 244.08 76.05 245.65 77.68 246.39C78.51 246.77 79.44 246.94 80.42 246.83C81.22 246.74 81.95 246.48 82.59 246.09C83.96 245.26 84.91 243.82 85.08 242.17C85.12 241.81 85.12 241.44 85.08 241.06C85.05 240.75 84.39 234.61 84.39 234.61L83.4 223.72V223.71L76 223.24Z" fill="#D77867"/>
<path d="M84.17 232.03L75.55 229.91L75.47 230.69C75.47 230.69 77.52 233.87 84.47 235.31L84.17 232.03Z" fill="#BB6053"/>
<path d="M90.84 218.37L90.3 224.63C89.91 229.16 87.98 232.91 83.73 233.76C83.26 233.85 82.43 233.85 81.58 233.77C80.19 233.64 78.85 233.19 77.65 232.49L76.52 231.82C75.17 230.86 74.11 229.84 73.77 228.32L71.77 219.31C70.44 213.31 74.96 207.41 81.11 207.54C81.33 207.54 81.55 207.56 81.76 207.58C84.51 207.82 86.9 209.14 88.54 211.1C90.18 213.05 91.08 215.63 90.84 218.37Z" fill="#D77867"/>
<path d="M74.35 239.38C74.35 239.38 76.59 242.25 80.08 242.33L75.67 247.67C75.67 247.67 70.65 242.78 70.19 239.1L74.35 239.38Z" fill="#3572B9"/>
<path d="M84.93 239.84C84.93 239.84 83.15 242.52 79.41 242.28L83.49 247.75C83.49 247.75 88.77 243.32 89.38 239.66L84.93 239.84Z" fill="#3572B9"/>
<path d="M74.63 239.19C74.63 239.19 76.49 242.17 79.82 242.23L75.74 247.11C75.74 247.11 70.92 242.61 70.47 239.09L74.63 239.19Z" fill="#B7D2EE"/>
<path d="M84.99 239.4C84.99 239.4 83.01 242.3 79.67 242.23L83.54 247.28C83.54 247.28 88.37 243.14 88.96 239.64L84.99 239.4Z" fill="#B7D2EE"/>
<path d="M76.42 246.46L79.45 250.97L82.93 246.8L79.89 242.29L76.42 246.46Z" fill="#0F8861"/>
<path d="M81.15 247.27L81.12 248.96L81.04 255.84H77.51L78.12 249L78.29 247.13L81.15 247.27Z" fill="#0F8861"/>
<path d="M73.89 220.62C73.91 221.52 73.24 222.3 72.35 222.44C71.84 222.52 71.38 222.15 71.33 221.63C71.19 220.06 71.15 218.56 71.17 217.29C71.18 216.19 71.34 215.1 71.68 214.05C72.05 212.92 72.56 212.02 74.37 210.15C76.9 207.53 81.14 206.66 84.88 208.31C88.62 209.96 89.67 212.75 89.67 212.75C89.21 211.81 88.58 211.6 88.37 211.58C88.33 211.58 88.3 211.58 88.26 211.58C87.26 211.7 86.58 212.29 86.12 212.91C85.58 213.64 84.62 213.9 83.81 213.48C82.58 212.83 80.78 212.28 79.08 213.23C76.48 214.05 74.57 216.27 74.15 218.96L73.89 220.62Z" fill="#22202C"/>
<path d="M74.25 222.45C74.25 222.45 74.11 220.22 72.04 220.65C69.97 221.08 70.85 226.56 75.14 225.81L74.25 222.45Z" fill="#D77867"/>
<path d="M103.25 255.84H90.13L89.47 253.67L88.44 250.27C88.38 250.07 88.33 249.85 88.28 249.63C87.8 247.23 88.65 244.88 90.34 243.34C90.74 242.97 91.2 242.64 91.69 242.38C92.26 242.07 92.89 241.84 93.56 241.71C95.08 241.4 96.59 241.64 97.88 242.28C99.68 243.18 101.06 244.86 101.48 246.98L101.74 248.26L103.25 255.84Z" fill="white"/>
<path d="M67.33 242.02L67.23 242.64L66.65 246.25L66.17 249.21L65.77 251.67L65.09 255.84H51.2C52.24 252.87 53.29 250.36 54.26 248.32C55.03 246.69 56.08 245.22 57.37 243.95L57.88 243.45C58.77 242.57 59.81 241.88 60.95 241.4C60.97 241.39 60.98 241.38 61 241.38C61.7 241.1 62.42 240.89 63.17 240.77L64.21 240.61L66.49 240.25C67.09 240.58 67.47 241.27 67.33 242.02Z" fill="white"/>
<path d="M97.87 242.29L97.8 243.89L97.64 247.22L97.45 251.31L97.24 255.83H82.91L85.46 245.87L85.62 245.22L86.63 241.26L87.02 239.74L87.08 239.51L87.11 239.39L87.55 239.4C89.66 239.43 91.76 239.79 93.75 240.44C95.18 240.92 96.56 241.53 97.87 242.29Z" fill="white"/>
<path d="M73.35 255.84H59.6L59.68 254.69L60.09 241.86C60.37 241.7 60.65 241.55 60.94 241.4C60.96 241.39 60.97 241.38 60.99 241.38C63.84 239.92 66.99 239.15 70.2 239.12C70.29 239.11 70.37 239.11 70.46 239.11H70.49C70.58 239.11 70.67 239.12 70.76 239.12L71.55 239.13L71.56 239.19L71.92 242.54L71.99 243.2L73.35 255.84Z" fill="white"/>
<path d="M91.09 246.13L90.8 246.31L89.73 246.98C89.23 247.3 89.08 247.97 89.42 248.46L90.8 250.52C91.07 250.92 91.04 251.44 90.72 251.81L89.47 253.67L88.21 255.55C88.15 255.65 88.08 255.74 88.02 255.84H82.91L85.46 245.88L85.62 245.23L86.63 241.27L87.02 239.75L87.08 239.52L87.11 239.4L87.21 239.52L87.38 239.72L88.49 241.09L88.76 241.42L90.32 243.34L90.92 244.07L91.33 244.57C91.74 245.06 91.62 245.79 91.09 246.13Z" fill="#E8E0EF"/>
<path d="M73.35 255.84H68.01C67.89 255.62 67.77 255.41 67.65 255.19L65.76 251.67L65.52 251.22C65.24 250.83 65.26 250.3 65.57 249.93L66.17 249.21L67.16 248.02C67.54 247.56 67.47 246.88 67 246.52L66.66 246.25L65.74 245.53C65.24 245.14 65.2 244.4 65.64 243.95L67.24 242.64L70.42 240.05L70.66 239.86L71.49 239.18L71.56 239.12L71.57 239.18L71.93 242.53L72 243.19L73.35 255.84Z" fill="#E8E0EF"/>
<path opacity="0.8" d="M38.76 203.21V252.53C38.76 254.36 40.25 255.84 42.07 255.84H118.01C119.84 255.84 121.33 254.36 121.33 252.53V203.21H38.76Z" stroke="#0B8961" stroke-width="0.25" stroke-miterlimit="10"/>
<path d="M184.3 86.2101H226.56C236.55 86.2101 244.65 78.1101 244.65 68.1201V63.4801C244.65 53.4901 236.55 45.3901 226.56 45.3901H184.3C174.31 45.3901 166.21 53.4901 166.21 63.4801V68.1201C166.21 78.1101 174.31 86.2101 184.3 86.2101Z" fill="white" stroke="#00A14A" stroke-width="0.75" stroke-miterlimit="10"/>
<path d="M184.64 96.5001L178.77 86.3301H195.02L189.15 96.5001C188.15 98.2401 185.64 98.2401 184.64 96.5001Z" fill="white" stroke="#00A14A" stroke-width="0.75" stroke-miterlimit="10"/>
<path d="M232.81 71.5201H222.65C221.09 71.5201 219.83 70.2601 219.83 68.7001V62.9201C219.83 61.3601 221.09 60.1001 222.65 60.1001H232.81C234.37 60.1001 235.63 61.3601 235.63 62.9201V68.7001C235.63 70.2601 234.37 71.5201 232.81 71.5201Z" stroke="#00A14A" stroke-width="0.25" stroke-miterlimit="10"/>
<path d="M227.93 68.5698H227.54C227.06 68.5698 226.66 68.1798 226.66 67.6898V63.9298C226.66 63.4498 227.05 63.0498 227.54 63.0498H227.93C228.41 63.0498 228.81 63.4398 228.81 63.9298V67.6898C228.8 68.1798 228.41 68.5698 227.93 68.5698Z" fill="#0F8861"/>
<path d="M224.97 66.0098V65.6198C224.97 65.1398 225.36 64.7397 225.85 64.7397H229.61C230.09 64.7397 230.49 65.1298 230.49 65.6198V66.0098C230.49 66.4898 230.1 66.8897 229.61 66.8897H225.85C225.37 66.8897 224.97 66.4898 224.97 66.0098Z" fill="#0F8861"/>
<path d="M116.24 247.13C116.24 249.69 114.17 251.76 111.61 251.76C109.05 251.76 106.98 249.69 106.98 247.13C106.98 244.57 109.05 242.5 111.61 242.5C114.17 242.5 116.24 244.57 116.24 247.13Z" fill="#0F8861"/>
<path d="M111.77 248.45H110.35C109.67 248.45 109.12 247.9 109.12 247.22V247.04C109.12 246.36 109.67 245.81 110.35 245.81H111.77C112.45 245.81 113 246.36 113 247.04V247.22C113 247.9 112.45 248.45 111.77 248.45Z" fill="white"/>
<path d="M113.25 247.53L113.48 247.69C113.81 247.93 114.27 247.69 114.27 247.29V246.96C114.27 246.55 113.81 246.32 113.48 246.56L113.25 246.72C112.98 246.92 112.98 247.33 113.25 247.53Z" fill="white"/>
<path d="M104.09 247.13C104.09 249.74 101.98 251.85 99.37 251.85C96.76 251.85 94.65 249.74 94.65 247.13C94.65 244.52 96.76 242.41 99.37 242.41C101.97 242.4 104.09 244.52 104.09 247.13Z" fill="#0F8861"/>
<path d="M99.37 247.41C98.75 247.41 98.24 246.9 98.24 246.28V245.1C98.24 244.48 98.75 243.97 99.37 243.97C99.99 243.97 100.5 244.48 100.5 245.1V246.28C100.5 246.9 100 247.41 99.37 247.41Z" fill="white"/>
<path d="M100.9 246.43C100.9 247.28 100.21 247.97 99.36 247.97C98.51 247.97 97.82 247.28 97.82 246.43" stroke="white" stroke-width="1.1243" stroke-miterlimit="10" stroke-linecap="round"/>
<path d="M99.37 248.14V249.91" stroke="white" stroke-width="1.1243" stroke-miterlimit="10" stroke-linecap="round"/>
<path d="M99.37 250.28C99.77 250.28 99.9 249.75 99.55 249.56L99.37 249.46L99.19 249.56C98.83 249.75 98.97 250.28 99.37 250.28Z" fill="white"/>
<path d="M189.99 61.3601C188.27 59.5701 185.42 59.5501 183.67 61.3001C181.92 59.5501 179.08 59.5701 177.35 61.3601C175.66 63.1101 175.79 65.9401 177.51 67.6601L182.52 72.6701C183.15 73.3001 184.18 73.3001 184.81 72.6701L189.82 67.6601C191.55 65.9401 191.68 63.1201 189.99 61.3601Z" fill="white" stroke="#0B8961" stroke-width="0.5" stroke-miterlimit="10"/>
<path d="M183.68 70.7699H183.67C183.51 70.7599 183.37 70.6599 183.32 70.5099L181.08 63.9699L180.14 66.6999C180.09 66.8599 179.94 66.9599 179.77 66.9599H176.03C175.82 66.9599 175.64 66.7899 175.64 66.5699C175.64 66.3599 175.81 66.1799 176.03 66.1799H179.5L180.71 62.6399C180.76 62.4799 180.91 62.3799 181.08 62.3799C181.25 62.3799 181.39 62.4799 181.45 62.6399L183.73 69.2899L185.94 64.0899C186 63.9499 186.13 63.8599 186.27 63.8599C186.42 63.8499 186.56 63.9299 186.63 64.0599L187.82 66.1899H191.34C191.55 66.1899 191.73 66.3599 191.73 66.5799C191.73 66.7899 191.56 66.9699 191.34 66.9699H187.6C187.46 66.9699 187.33 66.8899 187.26 66.7699L186.34 65.1299L184.05 70.5299C183.97 70.6699 183.83 70.7699 183.68 70.7699Z" fill="#0F8861"/>
<path d="M208.13 53.4702C208.13 54.1002 207.99 54.6302 207.76 55.1002H203.11C202.87 54.6402 202.73 54.1002 202.73 53.4702H202.3C202.3 55.5602 203.67 56.6602 205.06 57.6702C203.66 58.6802 202.3 59.7802 202.3 61.8702C202.3 63.9602 203.67 65.0602 205.06 66.0702C203.66 67.0802 202.3 68.1802 202.3 70.2702C202.3 72.3602 203.67 73.4602 205.06 74.4702C203.66 75.4802 202.3 76.5802 202.3 78.6702H202.73C202.73 77.9802 202.9 77.4102 203.17 76.9102H207.68C207.96 77.4002 208.12 77.9802 208.12 78.6702H208.55C208.55 76.5802 207.18 75.4802 205.79 74.4702C207.19 73.4602 208.55 72.3602 208.55 70.2702C208.55 68.1802 207.18 67.0802 205.79 66.0702C207.19 65.0602 208.55 63.9602 208.55 61.8702C208.55 59.7802 207.19 58.6802 205.79 57.6702C207.19 56.6602 208.55 55.5602 208.55 53.4702H208.13ZM207.41 76.4802H203.46C203.97 75.8102 204.68 75.2702 205.44 74.7302C206.18 75.2702 206.9 75.8102 207.41 76.4802ZM207.51 72.3102C207 73.0502 206.23 73.6202 205.43 74.2002C204.63 73.6202 203.86 73.0502 203.35 72.3102H207.51ZM208.12 70.5402C208.09 71.0502 207.96 71.4902 207.76 71.8802H203.1C202.9 71.4902 202.78 71.0502 202.74 70.5402H208.12ZM207.73 68.6002C207.96 69.0402 208.1 69.5302 208.12 70.1102H202.73C202.75 69.5302 202.9 69.0302 203.12 68.6002H207.73ZM207.47 68.1702H203.39C203.9 67.4502 204.65 66.9002 205.43 66.3302C206.21 66.9002 206.96 67.4502 207.47 68.1702ZM207.4 64.0702C206.89 64.7402 206.18 65.2702 205.44 65.8102C204.7 65.2702 203.98 64.7402 203.48 64.0702H207.4ZM208.11 62.3002C208.06 62.8102 207.9 63.2502 207.68 63.6402H203.18C202.96 63.2502 202.81 62.8102 202.75 62.3002H208.11ZM207.81 60.3502C208.01 60.7902 208.13 61.2802 208.13 61.8602H202.73C202.73 61.2802 202.85 60.7802 203.05 60.3502H207.81ZM207.58 59.9202H203.29C203.8 59.1302 204.6 58.5302 205.43 57.9302C206.27 58.5402 207.07 59.1302 207.58 59.9202ZM207.5 55.5202C206.99 56.2602 206.23 56.8202 205.43 57.4002C204.63 56.8202 203.87 56.2602 203.36 55.5202H207.5Z" fill="#0F8861"/>
<path d="M179.07 269.49C178.2 267.47 177.56 253.46 179.08 251.93C180.05 250.96 183.54 252.19 184.46 253.92C186.03 256.84 184.83 259.27 186.03 262.44C187.18 265.48 189.13 264.79 190.09 261.49C190.09 261.49 190.32 257.44 190.01 256.13C189.49 253.94 186.05 239.31 184.49 232.51C183.12 226.5 187.18 224.18 188.46 225.68C191.19 228.87 198.28 254.22 198.28 254.22L197.03 247.03C197.03 244.45 203.74 245.72 204.55 247.51L206.47 254.22C206.47 254.22 205.7 249.8 205.7 247.84C205.7 246.74 210.82 247.93 212.14 249.74C213.04 250.98 214.66 254.22 214.66 254.22C214.66 254.22 213.4 250.18 213.57 249.91C213.96 249.3 218.13 251.42 219.48 253.41C223.86 259.85 222.6 267.08 221.48 274.88C221.17 277.01 220.55 278.89 219.8 280.5C217.91 284.57 213.82 287.17 209.33 287.17H196.46C195.74 287.17 195.03 286.93 194.46 286.48C187.83 281.31 182.29 276.96 179.07 269.49Z" fill="#FBBF9D"/>
<path d="M179.85 228.48C179.85 223.83 184.05 220.15 188.86 221.03C191.89 221.59 194.32 224.02 194.88 227.05C195.35 229.57 194.55 231.91 193.03 233.58C193.28 234.28 193.52 235 193.77 235.74C196.03 233.77 197.37 230.78 197.03 227.48C196.58 223.02 192.99 219.39 188.53 218.89C182.72 218.25 177.78 222.79 177.78 228.48C177.78 232.83 180.68 236.52 184.65 237.72C184.45 236.87 184.26 236.05 184.08 235.28C181.58 234.03 179.85 231.46 179.85 228.48Z" fill="#FBBF9D"/>
</svg>
